<svg enable-background="new 0 0 600 167.7140961" viewBox="0 0 600 167.7140961" xmlns="http://www.w3.org/2000/svg"><path d="m212.014542.001163h6.720068v167.712936h-6.720068z" fill="#fff"/><path d="m0 0h167.691101v167.713471h-167.691101z" fill="#facfaf"/><path d="m43.3152275 27.0347061v31.2246742h9.1917419c9.9466972 0 10.4500389-1.6362076 11.2054367-9.4433784h2.8964882v22.7892227h-2.8964882c-.7553978-7.8056259-1.2587395-9.3171349-11.2054367-9.3171349h-9.1917419v27.0709572c0 5.5398331 1.5112 6.7973938 11.7095642 6.7973938v3.4002762h-35.883667v-3.4002762c7.4292164 0 10.0721989-.3771057 10.0721989-6.4202881v-56.6583442c0-6.0431023-2.6429825-6.4209785-10.0721989-6.4209785v-3.3995056h47.7190743c6.4214096 0 8.687973-.2516365 10.7017365-.6295128v23.5445175h-3.1470413c-1.637001-16.3684769-4.9113846-19.1376228-19.5155754-19.1376228h-11.5840913z" fill="#333"/><path d="m142.7347107 23.2565536c6.4221344 0 8.688324-.2508659 10.7024841-.6287422v23.5437469h-3.1481781c-1.6369781-16.3677063-4.9094696-19.1376228-19.5151825-19.1376228h-4.0297165v62.3251114c0 5.9169388 2.2672653 6.7989349 11.7095566 6.7989349v3.398735h-37.6454163v-3.398735c9.4422226 0 11.8346481-.8819962 11.8346481-6.7989349v-62.3251114h-4.0294037c-14.60495 0-17.8792877 2.7699165-19.5148087 19.1376228h-3.147789v-23.5437469c2.0141602.3778763 4.2803421.6287422 10.7017059.6287422z" fill="#333"/><g fill="#fff"><path d="m289.0328064 31.2066593c0 7.1367931-4.9284973 10.9890194-13.0135498 10.9890194h-16.1045532v-38.7814855h14.8445129c8.085083 0 13.0726318 3.5995674 13.0726318 10.5460434 0 4.1705103-2.2739258 7.2024164-5.115509 8.2130518 3.6651917 1.197668 6.3164673 4.8005161 6.3164673 9.0333709zm-14.7789002-11.8782444c3.8522339 0 5.8735046-1.5159512 5.8735046-4.6102018s-2.0212708-4.4855137-5.8735046-4.4855137h-6.5691223v9.0957155zm-6.5691223 16.045475h7.6421204c3.789856 0 5.8111267-1.8965836 5.8111267-4.8628616 0-3.0319061-2.0212708-4.8628616-5.8111267-4.8628616h-7.6421204z"/><path d="m311.2077332 42.8289642c-10.802002 0-18.3194275-8.4657097-18.3194275-20.0256691 0-11.6223049 7.5174255-20.0223904 18.3194275-20.0223904 10.8019714 0 18.3817444 8.4000845 18.3817444 20.0223904-.0000001 11.5599594-7.579773 20.0256691-18.3817444 20.0256691zm0-32.8456421c-6.1294556 0-10.1063538 5.2402086-10.1063538 12.819973s3.9768982 12.8232536 10.1063538 12.8232536c6.1884766 0 10.2310181-5.2434902 10.2310181-12.8232536s-4.0425416-12.819973-10.2310181-12.819973z"/><path d="m352.7061157 3.4141932 14.8445129 38.7814865h-8.2130432l-3.4715881-9.3483772h-14.529541l-3.4092407 9.3483772h-8.085083l14.8412476-38.7814865zm-8.8430786 22.6113214h9.4763489l-4.7381592-12.8855982z"/><path d="m380.1868591 27.731781v14.4638977h-8.0227356v-38.7814855h15.9798279c8.1474304 0 13.5812378 4.3575439 13.5812378 12.3146553 0 6.191781-3.4125366 10.1063509-8.8430481 11.4352713l10.2310486 15.031559h-9.0957336l-9.6010437-14.4638977h-4.2295533zm0-6.6314716h7.4517822c4.0425415 0 6.1261597-2.1492405 6.1261597-5.3714609 0-3.284564-2.0836182-5.4305239-6.1261597-5.4305239h-7.4517822z"/><path d="m407.6643066 3.4141932h13.7059326c11.7502747 0 19.1397095 7.5797634 19.1397095 19.3891029 0 11.8126183-7.3894348 19.3923836-19.1397095 19.3923836h-13.7059326zm13.3909302 31.6446943c7.3894348 0 11.4319763-4.7381744 11.4319763-12.2555923 0-7.5797644-4.0425415-12.3146563-11.4319763-12.3146563h-5.37146v24.5702477h5.37146z"/><path d="m259.9147034 64.7767639h13.7059326c11.7502747 0 19.1397095 7.5797653 19.1397095 19.3890991 0 11.8126221-7.3894348 19.3923874-19.1397095 19.3923874h-13.7059326zm13.3909301 31.6446915c7.3894348 0 11.4319763-4.7381744 11.4319763-12.2555923 0-7.5797653-4.0425415-12.3146515-11.4319763-12.3146515h-5.37146v24.5702438z"/><path d="m306.407196 103.5582504h-8.085083v-38.7814865h8.085083z"/><path d="m321.7537537 89.0943527v14.4638977h-8.0227356v-38.7814865h15.9798584c8.1474304 0 13.5812378 4.3575439 13.5812378 12.3146515 0 6.1917801-3.4125366 10.1063538-8.8430786 11.4352722l10.2310486 15.0315628h-9.0957031l-9.6010437-14.4638977zm0-6.6314773h7.4518127c4.0425415 0 6.1261597-2.1492386 6.1261597-5.37146 0-3.2845612-2.0836182-5.4305191-6.1261597-5.4305191h-7.4518127z"/><path d="m375.5700989 64.7767639v7.0744476h-18.3817444v8.4624252h16.6754761v6.8841324h-16.6754761v9.2236862h18.3817444v7.136795h-26.3388672v-38.7814864z"/><path d="m399.1329651 64.1434784c4.2295837 0 7.5797729 1.1386032 10.1063538 3.0319061v8.1474228c-2.9695435-2.5889359-6.0638123-3.7898788-9.7290039-3.7898788-6.9464722 0-11.4943237 4.9908295-11.4943237 12.6329346 0 7.5797653 4.5478516 12.5705948 11.4943237 12.5705948 3.6651917 0 6.7594604-1.1353226 9.7290039-3.7275391v8.1507111c-2.5265808 1.8933029-5.87677 3.0319061-10.1063538 3.0319061-11.2449341 0-19.2676697-8.0227356-19.2676697-20.0256729 0-11.9996491 8.0227356-20.0223847 19.2676697-20.0223847z"/><path d="m413.3475037 64.7767639h33.0950012v7.0744476h-12.5049439v31.7070389h-8.1474304v-31.7070389h-12.442627v-7.0744476z"/><path d="m466.1499023 104.1915359c-10.8019714 0-18.3161316-8.4657135-18.3161316-20.0256729 0-11.6223068 7.5141602-20.0223846 18.3161316-20.0223846s18.3817444 8.4000778 18.3817444 20.0223846c0 11.5599594-7.5797729 20.0256729-18.3817444 20.0256729zm0-32.845642c-6.129425 0-10.1063538 5.2402039-10.1063538 12.8199692s3.9769287 12.8232574 10.1063538 12.8232574c6.1885071 0 10.2310486-5.2434921 10.2310486-12.8232574s-4.0425415-12.8199692-10.2310486-12.8199692z"/><path d="m497.9224854 89.0943527v14.4638977h-8.0194702v-38.7814865h15.9798584c8.1506958 0 13.5779419 4.3575439 13.5779419 12.3146515 0 6.1917801-3.4059448 10.1063538-8.8397827 11.4352722l10.2310791 15.0315628h-9.0957336l-9.6010437-14.4638977zm0-6.6314773h7.4550781c4.0425415 0 6.129425-2.1492386 6.129425-5.37146 0-3.2845612-2.0868835-5.4305191-6.129425-5.4305191h-7.4550781z"/><path d="m267.9341736 151.4751892v13.4532623h-8.0194702v-38.7814865h15.7895508c8.2130432 0 13.6435547 4.4198837 13.6435547 12.6952896 0 8.2097626-5.4305115 12.6329346-13.6435547 12.6329346zm7.26474-18.4440918h-7.26474v11.5566864h7.26474c4.1705322 0 6.191803-2.3986206 6.191803-5.7455292 0-3.474884-2.0212708-5.8111572-6.191803-5.8111572z"/><path d="m302.4204407 150.4645538v14.4638977h-8.0194397v-38.7814865h15.9798279c8.1474304 0 13.5812378 4.3575516 13.5812378 12.3146591 0 6.1917725-3.4125366 10.1063538-8.8430481 11.4352722l10.2310181 15.0315552h-9.0957031l-9.6010437-14.4638977zm0-6.6314697h7.4550781c4.0425415 0 6.1261597-2.1492462 6.1261597-5.37146 0-3.2845612-2.0836182-5.4305267-6.1261597-5.4305267h-7.4550781z"/><path d="m346.0090027 165.5617371c-10.8019714 0-18.319397-8.4657135-18.319397-20.0256653 0-11.6223145 7.5174255-20.0223923 18.319397-20.0223923 10.802002 0 18.3817444 8.4000778 18.3817444 20.0223923 0 11.5599518-7.5797425 20.0256653-18.3817444 20.0256653zm0-32.8456421c-6.129425 0-10.1063538 5.2402039-10.1063538 12.8199768 0 7.5797577 3.9769287 12.8232574 10.1063538 12.8232574 6.1885071 0 10.2310486-5.2434998 10.2310486-12.8232574 0-7.579773-4.0425415-12.8199768-10.2310486-12.8199768z"/><path d="m394.2044983 156.3380585v-5.8735046h-6.5691223v-6.6314697h13.8995056v16.2324982c-3.7931519 3.8522339-8.9086914 5.4961548-14.0242004 5.4961548-11.7470093 0-19.13974-8.2130432-19.13974-19.9633179 0-11.9996643 8.337738-20.0847397 19.9600525-20.0847397 4.4231873 0 8.337738 1.2009506 11.1170044 3.2222214v8.085083c-3.1566162-2.5265961-6.6315002-3.9178619-11.1170044-3.9178619-6.9464722 0-11.8126221 5.0531769-11.8126221 12.6952972 0 7.5174103 4.2984924 12.76091 11.1826172 12.76091 2.5265808-.0000001 4.8005066-.6333009 6.5035095-2.0212708z"/><path d="m415.933136 150.4645538v14.4638977h-8.0194397v-38.7814865h15.9798584c8.1473999 0 13.5812073 4.3575516 13.5812073 12.3146591 0 6.1917725-3.4125366 10.1063538-8.8430481 11.4352722l10.2310486 15.0315552h-9.0957336l-9.6010132-14.4638977zm0-6.6314697h7.4550781c4.0425415 0 6.1261597-2.1492462 6.1261597-5.37146 0-3.2845612-2.0836182-5.4305267-6.1261597-5.4305267h-7.4550781z"/><path d="m463.4986267 126.146965 14.8445129 38.7814865h-8.2097473l-3.4781799-9.3483734h-14.5230103l-3.4124756 9.3483734h-8.085083l14.8445435-38.7814865zm-8.8397827 22.6113205h9.4697876l-4.7381592-12.8855896z"/><path d="m502.0340271 156.5907135-11.1826172-16.6754761v25.0132141h-7.8947754v-38.7814865h7.5141296l11.7470093 18.316124 11.6879272-18.316124h7.3894653v38.7814865h-7.9603882v-25.0132141l-11.0513916 16.6754761z"/><path d="m547.3878784 156.5907135-11.1825562-16.6754761v25.0132141h-7.8947754v-38.7814865h7.5140991l11.7536011 18.316124 11.6813354-18.316124h7.3894653v38.7814865h-7.9538574v-25.0132141l-11.0579224 16.6754761z"/><path d="m600 126.146965v7.0744553h-18.3751831v8.4624176h16.6754761v6.88414h-16.6754761v9.2236786h18.3751831v7.136795h-26.3355713v-38.7814865z"/></g></svg>