<svg viewBox="0 0 119.04 33.279999" xmlns="http://www.w3.org/2000/svg" xmlns:xlink="http://www.w3.org/1999/xlink"><clipPath id="a"><path d="m0 249.57v-249.57h892.848v249.57z"/></clipPath><g clip-path="url(#a)" transform="matrix(.13333333 0 0 -.13333333 0 33.28)"><path d="m315.496 0h10v249.57h-10z" fill="#3f474f"/><path d="m0 0h249.539v249.57h-249.539z" fill="#fcd0af"/><g fill="#3f474f"><path d="m64.4531 209.34v-46.465h13.6836c14.8008 0 15.5469 2.438 16.6758 14.055h4.3047v-33.91h-4.3047c-1.1289 11.613-1.875 13.863-16.6758 13.863h-13.6836v-40.285c0-8.243 2.2539-10.114 17.4297-10.114v-5.058h-53.3984v5.058c11.0547 0 14.9883.563 14.9883 9.551v84.317c0 8.988-3.9336 9.55-14.9883 9.55v5.059h71.0078c9.5588 0 12.9298.375 15.9258.937v-35.035h-4.684c-2.437 24.356-7.304 28.477-29.0387 28.477z"/><path d="m212.398 214.965c9.563 0 12.93.371 15.93.933v-35.035h-4.683c-2.438 24.356-7.309 28.481-29.043 28.481h-5.997v-92.746c0-8.805 3.375-10.118 17.426-10.118v-5.054h-56.019v5.054c14.051 0 17.613 1.313 17.613 10.118v92.746h-5.996c-21.734 0-26.609-4.125-29.043-28.481h-4.684v35.035c2.996-.562 6.368-.933 15.922-.933z"/><path d="m398.336 196.355h11.375c5.637 0 8.644 2.825 8.644 7.239 0 4.511-3.007 7.234-8.644 7.234h-11.375zm9.777 23.879c5.731 0 8.739 2.254 8.739 6.86 0 4.605-3.008 6.676-8.739 6.676h-9.777v-13.536zm21.992-17.675c0-10.621-7.335-16.352-19.367-16.352h-23.965v57.707h22.09c12.032 0 19.453-5.355 19.453-15.691 0-6.207-3.382-10.719-7.613-12.223 5.457-1.781 9.402-7.145 9.402-13.441"/><path d="m463.102 234.141c-9.122 0-15.039-7.797-15.039-19.078 0-11.278 5.917-19.083 15.039-19.083 9.211 0 15.226 7.805 15.226 19.083 0 11.281-6.015 19.078-15.226 19.078zm0-48.879c-16.075 0-27.262 12.597-27.262 29.801 0 17.296 11.187 29.796 27.262 29.796 16.074 0 27.355-12.5 27.355-29.796 0-17.204-11.281-29.801-27.355-29.801"/><path d="m511.695 210.27h14.102l-7.051 19.171zm13.16 33.644 22.09-57.707h-12.222l-5.164 13.91h-21.621l-5.075-13.91h-12.031l22.086 57.707z"/><path d="m565.75 217.598h11.086c6.016 0 9.117 3.199 9.117 7.992 0 4.887-3.101 8.082-9.117 8.082h-11.086zm0-9.868v-21.523h-11.941v57.707h23.781c12.125 0 20.211-6.484 20.211-18.324 0-9.215-5.078-15.039-13.16-17.016l15.222-22.367h-13.535l-14.285 21.523z"/><path d="m626.563 196.824c10.996 0 17.011 7.051 17.011 18.239 0 11.281-6.015 18.324-17.011 18.324h-7.993v-36.563zm-19.926 47.09h20.394c17.489 0 28.485-11.277 28.485-28.851 0-17.579-10.996-28.856-28.485-28.856h-20.394z"/><path d="m406.699 105.227c10.996 0 17.012 7.046 17.012 18.234 0 11.281-6.016 18.324-17.012 18.324h-7.992v-36.558zm-19.926 47.086h20.395c17.488 0 28.484-11.278 28.484-28.852 0-17.578-10.996-28.8555-28.484-28.8555h-20.395z"/><path d="m443.926 94.6055h12.0352v57.707h-12.0352z"/><path d="m478.797 125.996h11.086c6.015 0 9.117 3.199 9.117 7.992 0 4.891-3.102 8.082-9.117 8.082h-11.086zm0-9.867v-21.5235h-11.942v57.7075h23.782c12.125 0 20.211-6.485 20.211-18.325 0-9.215-5.078-15.039-13.16-17.015l15.222-22.3675h-13.535l-14.285 21.5235z"/><path d="m558.879 152.313v-10.528h-27.356v-12.59h24.817v-10.246h-24.817v-13.722h27.356v-10.6215h-39.195v57.7075z"/><path d="m593.941 153.258c6.293 0 11.282-1.695 15.039-4.512v-12.125c-4.417 3.852-9.023 5.641-14.476 5.641-10.336 0-17.106-7.426-17.106-18.801 0-11.277 6.77-18.703 17.106-18.703 5.453 0 10.059 1.687 14.476 5.547v-12.1292c-3.757-2.8203-8.746-4.5156-15.039-4.5156-16.73 0-28.671 11.9418-28.671 29.8008 0 17.855 11.941 29.797 28.671 29.797"/><path d="m615.094 152.313h49.25v-10.528h-18.61v-47.1795h-12.125v47.1795h-18.515z"/><path d="m693.668 142.539c-9.121 0-15.039-7.797-15.039-19.078 0-11.277 5.918-19.082 15.039-19.082 9.211 0 15.227 7.805 15.227 19.082 0 11.281-6.016 19.078-15.227 19.078zm0-48.8788c-16.074 0-27.254 12.6018-27.254 29.8008 0 17.297 11.18 29.797 27.254 29.797s27.355-12.5 27.355-29.797c0-17.199-11.281-29.8008-27.355-29.8008"/><path d="m741.238 125.996h11.094c6.016 0 9.121 3.199 9.121 7.992 0 4.891-3.105 8.082-9.121 8.082h-11.094zm0-9.867v-21.5235h-11.933v57.7075h23.777c12.129 0 20.207-6.485 20.207-18.325 0-9.215-5.07-15.039-13.156-17.015l15.226-22.3675h-13.535l-14.289 21.5235z"/><path d="m409.52 50.4688h-10.813v-17.1993h10.813c6.203 0 9.21 3.5703 9.21 8.5508 0 5.1719-3.007 8.6485-9.21 8.6485zm-10.813-27.4454v-20.01949h-11.934v57.71089h23.497c12.222 0 20.304-6.5781 20.304-18.8945 0-12.2148-8.082-18.7969-20.304-18.7969z"/><path d="m450.027 34.3945h11.094c6.016 0 9.113 3.1993 9.113 7.9922 0 4.8867-3.097 8.0821-9.113 8.0821h-11.094zm0-9.8672v-21.52339h-11.933v57.71089h23.777c12.125 0 20.211-6.4882 20.211-18.3281 0-9.2109-5.078-15.039-13.16-17.0156l15.226-22.36719h-13.535l-14.289 21.52339z"/><path d="m514.891 50.9375c-9.121 0-15.039-7.7969-15.039-19.0781 0-11.2774 5.918-19.0821 15.039-19.0821 9.207 0 15.222 7.8047 15.222 19.0821 0 11.2812-6.015 19.0781-15.222 19.0781zm0-48.87891c-16.075 0-27.262 12.59771-27.262 29.80081 0 17.2969 11.187 29.7969 27.262 29.7969 16.074 0 27.351-12.5 27.351-29.7969 0-17.2031-11.277-29.80081-27.351-29.80081"/><path d="m586.609 15.7852v8.7421h-9.777v9.8672h20.684v-24.1562c-5.645-5.73049-13.258-8.17971-20.868-8.17971-17.48 0-28.48 12.22271-28.48 29.71091 0 17.8555 12.406 29.8868 29.699 29.8868 6.582 0 12.406-1.7891 16.543-4.7969v-12.0313c-4.695 3.7617-9.867 5.8321-16.543 5.8321-10.336 0-17.578-7.5196-17.578-18.8907 0-11.1875 6.399-18.9922 16.641-18.9922 3.761 0 7.144.9454 9.679 3.0079"/><path d="m618.941 34.3945h11.094c6.016 0 9.117 3.1993 9.117 7.9922 0 4.8867-3.101 8.0821-9.117 8.0821h-11.094zm0-9.8672v-21.52339h-11.933v57.71089h23.781c12.121 0 20.207-6.4882 20.207-18.3281 0-9.2109-5.078-15.039-13.156-17.0156l15.223-22.36719h-13.536l-14.285 21.52339z"/><path d="m676.57 27.0664h14.09l-7.051 19.1719zm13.153 33.6484 22.09-57.71089h-12.215l-5.176 13.91019h-21.613l-5.079-13.91019h-12.031l22.09 57.71089z"/><path d="m747.066 15.4102-16.64 24.8164v-37.22269h-11.746v57.71089h11.179l17.481-27.2578 17.394 27.2578h10.996v-57.71089h-11.847v37.22269l-16.445-24.8164z"/><path d="m814.559 15.4102-16.641 24.8164v-37.22269h-11.75v57.71089h11.184l17.488-27.2578 17.383 27.2578h10.996v-57.71089h-11.836v37.22269l-16.453-24.8164z"/><path d="m892.848 60.7148v-10.5312h-27.344v-12.5898h24.816v-10.2461h-24.816v-13.7266h27.344v-10.61719h-39.188v57.71089z"/></g></g></svg>
