<svg width="60" height="60" xmlns="http://www.w3.org/2000/svg"><g fill="none" fill-rule="evenodd"><circle fill="#C00" cx="30" cy="30" r="30"/><path d="M15.63 27H10v-.452c1.022 0 1.311-.137 1.311-1.1V16.65c0-.963-.289-1.1-1.311-1.1v-.452h8.87l.04 3.005h-.348c-.25-2.121-.868-2.435-3.24-2.435h-1.388v4.91h1.581c1.543 0 1.6-.314 1.755-1.532h.366v3.594h-.366c-.154-1.218-.212-1.512-1.755-1.512h-1.581v4.32c0 .904.231 1.1 1.697 1.1V27zm11.243-11.372v9.82c0 .924.309 1.1 1.697 1.1V27h-6.036v-.452c1.389 0 1.697-.176 1.697-1.1v-9.82h-.636c-2.198 0-2.873.413-3.124 2.927h-.366L20.163 15c.308.059.655.098 1.639.098h7.501c.984 0 1.33-.04 1.64-.098L31 18.555h-.366c-.251-2.514-.926-2.927-3.124-2.927h-.637zM21.015 45.74H9v-.6c1.366 0 1.753-.183 1.753-1.46V31.997c0-1.277-.387-1.46-1.753-1.46v-.6h7.013v.6c-1.367 0-1.753.183-1.753 1.46v11.786c0 .964.386 1.225 1.366 1.225h1.006c2.63 0 3.506-.626 4.357-4.198h.541l-.515 4.928zM23.67 30.85c0-1.043.851-1.851 1.908-1.851 1.032 0 1.857.808 1.857 1.851s-.825 1.825-1.857 1.825c-1.057 0-1.908-.782-1.908-1.825zm.284 5.554c0-1.278-.206-1.46-1.315-1.46v-.548h4.64v9.335c0 1.277.207 1.46 1.29 1.46v.547h-5.93v-.547c1.109 0 1.315-.183 1.315-1.46v-7.327zM35.118 46h-.129l-4.564-9.7c-.515-1.147-.67-1.355-1.65-1.355v-.548h6.137v.548c-.825 0-1.238.052-1.238.495 0 .209.103.496.284.887l2.294 5.397 2.114-5.24c.155-.418.258-.705.258-.94 0-.547-.541-.6-1.572-.6v-.547h4.022v.548c-1.032 0-1.212.156-1.83 1.564L35.117 46zM51 43.236C49.943 45.061 48.241 46 46.462 46c-3.12 0-5.698-2.32-5.698-5.736 0-3.468 2.707-6.127 5.544-6.127 2.965 0 4.512 2.424 4.537 4.615h-6.91v.052c0 3.259 1.78 5.527 4.126 5.527 1.057 0 1.882-.443 2.578-1.382l.361.287zm-4.821-8.37c-1.212 0-2.063 1.07-2.218 3.182h4.203c-.077-1.852-.722-3.181-1.985-3.181z" fill="#FFF"/></g></svg>