<?xml version="1.0" encoding="utf-8"?>
<!-- Generator: Adobe Illustrator 20.1.0, SVG Export Plug-In . SVG Version: 6.00 Build 0)  -->
<svg version="1.1" id="Layer_1" xmlns="http://www.w3.org/2000/svg" xmlns:xlink="http://www.w3.org/1999/xlink" x="0px" y="0px"
	 viewBox="0 0 699.4 283" style="enable-background:new 0 0 699.4 283;" xml:space="preserve">
<style type="text/css">
	.st0{fill:#FFFFFF;}
	.st1{fill:#FCD0B1;}
	.st2{fill:#333333;}
</style>
<g>
	<path class="st0" d="M335.3,39.2h21.8v109.3H419V168h-83.7V39.2z"/>
	<path class="st0" d="M462,168h-21.8V39.2H462V168z"/>
	<path class="st0" d="M528.1,168L479.5,39.2h22.9l36.5,100.5l36.5-100.5h22.2L548.9,168H528.1z"/>
	<path class="st0" d="M699.4,39.2v19.3h-62.7v34h56.8v19.1h-56.8v36.9h62.7V168h-84.1V39.2H699.4z"/>
</g>
<g>
	<g>
		<rect class="st1" width="283" height="283"/>
		<g>
			<path class="st2" d="M73.1,45.6v52.7h15.5c16.8,0,17.6-2.8,18.9-15.9h4.9v38.5h-4.9c-1.3-13.2-2.1-15.7-18.9-15.7H73.1v45.7
				c0,9.3,2.6,11.5,19.8,11.5v5.7H32.3v-5.7c12.5,0,17-0.6,17-10.8V55.8c0-10.2-4.5-10.8-17-10.8v-5.7h80.5
				c10.8,0,14.7-0.4,18.1-1.1v39.7h-5.3c-2.8-27.6-8.3-32.3-32.9-32.3H73.1z"/>
			<path class="st2" d="M240.9,39.2c10.8,0,14.7-0.4,18.1-1.1v39.7h-5.3c-2.8-27.6-8.3-32.3-32.9-32.3h-6.8v105.2
				c0,10,3.8,11.5,19.8,11.5v5.7h-63.5v-5.7c15.9,0,20-1.5,20-11.5V45.6h-6.8c-24.6,0-30.2,4.7-32.9,32.3h-5.3V38.2
				c3.4,0.6,7.2,1.1,18.1,1.1H240.9z"/>
		</g>
	</g>
</g>
</svg>
