<svg xmlns="http://www.w3.org/2000/svg" viewBox="0 0 699.4 283"><style>.st0{fill:#fff}.st1{fill:#fcd0b1}.st2{fill:#333}</style><path class="st0" d="M335.3 39.2h21.8v109.3H419V168h-83.7V39.2zM462 168h-21.8V39.2H462V168zM528.1 168L479.5 39.2h22.9l36.5 100.5 36.5-100.5h22.2L548.9 168h-20.8zM699.4 39.2v19.3h-62.7v34h56.8v19.1h-56.8v36.9h62.7V168h-84.1V39.2h84.1z"/><g><path class="st1" d="M0 0h283v283H0z"/><path class="st2" d="M73.1 45.6v52.7h15.5c16.8 0 17.6-2.8 18.9-15.9h4.9v38.5h-4.9c-1.3-13.2-2.1-15.7-18.9-15.7H73.1v45.7c0 9.3 2.6 11.5 19.8 11.5v5.7H32.3v-5.7c12.5 0 17-.6 17-10.8V55.8c0-10.2-4.5-10.8-17-10.8v-5.7h80.5c10.8 0 14.7-.4 18.1-1.1v39.7h-5.3c-2.8-27.6-8.3-32.3-32.9-32.3H73.1zM240.9 39.2c10.8 0 14.7-.4 18.1-1.1v39.7h-5.3c-2.8-27.6-8.3-32.3-32.9-32.3H214v105.2c0 10 3.8 11.5 19.8 11.5v5.7h-63.5v-5.7c15.9 0 20-1.5 20-11.5V45.6h-6.8c-24.6 0-30.2 4.7-32.9 32.3h-5.3V38.2c3.4.6 7.2 1.1 18.1 1.1h77.5z"/></g></svg>
