<svg xmlns="http://www.w3.org/2000/svg" viewBox="0 0 1050.06 283.04"><defs><style>.cls-1{fill:#333}</style></defs><path class="cls-1" d="M340.66 168V39.25h82.2v19.29h-60.4v38.17h56.41v19.08h-56.41V168zM495.83 170.1c-34.81 0-59.34-28.1-59.34-66.47 0-38.59 24.53-66.48 59.34-66.48s59.56 27.85 59.56 66.48c0 38.37-24.75 66.47-59.56 66.47zm0-113.45c-22.65 0-37.32 19.71-37.32 47s14.67 47 37.32 47 37.54-19.71 37.54-47-14.89-47-37.54-47zM597.75 115.79V168h-21.81V39.25h49.7c26.63 0 43.82 13.42 43.82 38.58 0 21.6-12.58 34-32.92 37.12L673.87 168h-24.75l-35.86-52.21zm0-18.25h27.47c14.47 0 22.64-7.75 22.64-19.71s-8.17-19.71-22.64-19.71h-27.47zM689.17 116.63V39.25H711v75.07c0 24.74 10.49 36.28 29.78 36.28s29.78-11.54 29.78-36.28V39.25h21.81v77.59c0 35.23-20.76 53.26-51.59 53.26-30.64 0-51.61-18.03-51.61-53.47zM879.16 140.32l-40-62.49V168h-21.44V39.25h20.34l41.73 67.1 41.52-67.1h19.5V168h-21.39V77.83L880 140.32zM963 135.92c11.74 9.44 25.79 14.89 40.89 14.89 14.68 0 25-5.24 25-16.78 0-10.06-6.5-14-18-18.45l-18.66-6.71C975 102.58 962 93.35 962 72.17c0-22.65 19.71-35 43.41-35 14.47 0 27.68 3.77 37.95 10.49v22.41c-10.69-8.17-22.44-13.84-37.53-13.84-13 0-22.65 5-22.65 15.52 0 9.44 6.08 13.21 16.77 17l20.77 7.55c20.13 7.34 29.35 18.66 29.35 37.32 0 23.49-19.92 36.49-46.13 36.49-17.2 0-31.88-5-40.89-11.32z"/><path fill="#fcd0b1" d="M0 0h283.01v283.04H0z"/><path class="cls-1" d="M73.1 45.63v52.69h15.51c16.79 0 17.64-2.76 18.92-15.93h4.88v38.46h-4.88c-1.28-13.18-2.13-15.73-18.92-15.73H73.1v45.69c0 9.35 2.55 11.47 19.76 11.47V168H32.3v-5.74c12.54 0 17-.64 17-10.84v-95.6c0-10.19-4.46-10.82-17-10.82v-5.75h80.54c10.84 0 14.66-.42 18.06-1.06v39.73h-5.31c-2.76-27.62-8.29-32.29-32.94-32.29zM240.89 39.25c10.84 0 14.66-.42 18.06-1.06v39.73h-5.31c-2.76-27.62-8.29-32.3-32.94-32.3h-6.8v105.19c0 10 3.83 11.47 19.76 11.47V168h-63.53v-5.74c15.94 0 20-1.49 20-11.47V45.62h-6.8c-24.64 0-30.17 4.68-32.93 32.3h-5.31V38.19c3.4.64 7.22 1.06 18.06 1.06z"/></svg>
