<svg xmlns="http://www.w3.org/2000/svg" width="705.875" height="315.289" viewBox="0 0 705.875 315.289"><path d="M16.1 108.045c.2 7.4 1.1 9.8 3.5 10.5 1.7.5 3.7.5 4.5.5.5 0 .7.2.7.5 0 .5-.5.7-1.6.7-5.1 0-8.8-.3-9.6-.3s-4.603.3-8.7.3c-.9 0-1.4-.1-1.4-.7 0-.4.3-.5.7-.5.7 0 2.3-.1 3.7-.5 2.3-.6 2.7-3.3 2.7-11.5l.2-51.798c0-3.5.3-4.5 1-4.5.697 0 2.3 2 3.197 2.9 1.4 1.5 14.8 16.1 28.7 30.998 8.897 9.6 18.8 20.6 21.697 23.6l-1-45.898c-.1-5.9-.7-7.9-3.5-8.6-1.6-.4-3.7-.5-4.4-.5-.6 0-.7-.3-.7-.6 0-.5.7-.6 1.8-.6 4.1 0 8.4.3 9.4.3s4-.3 7.7-.3c1 0 1.6.1 1.6.6 0 .4-.4.6-1 .6-.5 0-1.1 0-2.2.3-3 .6-3.3 2.6-3.3 8l-.2 52.898c0 6-.2 6.4-.8 6.4-.7 0-1.8-1-6.6-5.8-1-.9-14-14.2-23.6-24.5-10.6-11.2-20.8-22.5-23.698-25.8l1.204 43.3zm98.496-46.897c17.9 0 31.4 10.9 31.4 28.8 0 17.2-12.7 31.3-31.9 31.3-21.8 0-31.1-16.4-31.1-30.2 0-12.3 9.6-29.9 31.6-29.9zm1.8 56.998c7.1 0 21.5-3.8 21.5-26 0-18.398-11.2-28.1-23.8-28.1-13.3 0-22.9 8.3-22.9 25 .1 17.902 10.8 29.1 25.2 29.1zm46-8.3c.2 6.3.9 8.2 3.1 8.8 1.4.4 3.3.5 4 .5.4 0 .6.3.6.6 0 .5-.5.6-1.4.6-4.5 0-7.7-.3-8.397-.3-.7 0-4.102.3-7.7.3-.8 0-1.3-.1-1.3-.6 0-.4.3-.6.6-.6.6 0 2.1-.1 3.3-.5 2-.5 2.3-2.6 2.3-9.6v-44c0-3.1.5-3.898 1.1-3.898.9 0 2.3 1.5 3.1 2.3 1.3 1.3 12.8 13.6 25.1 26.2 7.9 8.1 16.4 17.3 18.8 19.8l-.8-38.5c-.1-5-.5-6.7-3-7.1-1.4-.3-3.3-.4-3.9-.4-.5 0-.6-.5-.6-.7 0-.5.6-.5 1.5-.5 3.6 0 7.4.2 8.3.2s3.5-.2 6.8-.2c.8 0 1.4.1 1.4.5 0 .3-.4.7-.9.7-.398 0-1 0-1.898.2-2.6.5-2.8 2.1-2.8 6.7l-.2 44.997c0 5.1-.1 5.5-.6 5.5-.8 0-1.6-.6-6.1-4.7-.8-.7-12.3-12-20.7-20.8-9.2-9.7-18.2-19.1-20.6-21.8l.893 36.3zm83.595-17.8c1.5 0 2.7.2 2.7.9 0 1.1-1.7 1.3-3.2 1.5-2.398.4-18.398 2.5-21.5 3.3-1.698.5-3.3 1.4-3.698 1.4-.498 0-.6-.5-.498-1.4l1.4-5.1c.2-.6.5-.7 2-.7h22.797v.1zm18.302-13.8c0-14.1 0-16.6-.2-19.5-.2-3.1-.9-4.5-3.9-5.2-.7-.2-2.3-.3-3.1-.3-.4 0-.7-.2-.7-.5 0-.5.5-.7 1.4-.7 2.1 0 4.5 0 6.5.1l3.7.2c.6 0 18.6 0 20.7-.1 1.7-.1 3.197-.3 3.897-.5.5-.1.8-.5 1.3-.5.3 0 .4.4.4.8 0 .6-.5 1.7-.7 4.2-.102.9-.3 4.9-.5 6-.102.5-.3 1-.602 1-.5 0-.7-.5-.7-1.2 0-.6-.1-2.2-.5-3.3-.6-1.4-1.5-2.5-6.4-3.1-1.5-.2-11.4-.3-12.4-.3-.396 0-.5.3-.5.9v24.897c0 .6.104.9.5.9 1.2 0 12.302 0 14.4-.2 2.2-.2 3.4-.4 4.2-1.3.6-.7 1-1.2 1.4-1.2.3 0 .5.2.5.7s-.5 2.1-.7 5.1c-.2 1.8-.4 5.2-.4 5.8 0 .7 0 1.7-.6 1.7-.5 0-.6-.4-.6-.8 0-.9 0-1.8-.4-3-.4-1.3-1.2-2.8-4.7-3.2-2.4-.3-11.4-.5-12.9-.5-.5 0-.6.3-.6.6v8c0 3.1-.1 13.6 0 15.4.3 6.2 1.6 7.4 10.5 7.4 2.3 0 6.3 0 8.7-1 2.4-1 3.4-2.8 4.1-6.5.2-1 .4-1.4.8-1.4.5 0 .5.7.5 1.4s-.7 6.897-1.2 8.8c-.6 2.3-1.398 2.3-4.898 2.3-6.8 0-11.698-.2-15.298-.3-3.5-.2-5.7-.3-7-.3-.2 0-1.7 0-3.6.1-1.8 0-3.9.2-5.2.2-1 0-1.4-.2-1.4-.7 0-.3.2-.5.7-.5.8 0 1.9-.2 2.7-.4 1.8-.4 2.3-2.4 2.6-5 .5-3.8.5-10.9.5-19.6v-15.4h-.3v.003zm62.897 12.4l-12.6-20.6c-1.8-3-3.3-5.2-6.102-6-1.3-.4-2.9-.5-3.3-.5-.5 0-.7-.5-.7-.7 0-.4.4-.5 1.4-.5 2.3 0 8.7.2 9.3.2.7 0 5.1-.2 7.8-.2 1.1 0 1.4.2 1.4.5 0 .4-.3.7-.7.7-.5 0-1.5 0-2.2.2-.7.1-1 .6-1 1.2 0 .7.4 1.7.8 2.5 3.3 6.1 6.3 11.6 10.5 18.2 2.3-3.3 10.8-16.3 11.5-17.9.6-1.1.8-1.8.8-2.7 0-.5-.5-1-1.4-1.3-.8-.2-1.7-.2-2.2-.2s-.698-.4-.698-.7c0-.4.4-.5 1.4-.5 3 0 6.3.2 7 .2s4-.2 6.7-.2c.9 0 1.3.2 1.3.5s-.3.7-.8.7c-.6 0-1.802.1-2.7.4-2.3.7-3.7 2.7-6 6.1l-12.9 18.5c1.5 2.3 15.1 24.7 16.8 26.7 1.3 1.6 2.2 2.698 4.5 3.3 1.1.3 2.3.5 2.7.5.5 0 .6.3.6.6 0 .4-.4.6-1.1.6-4.9 0-8.7 0-13-.2-2.1-.1-2.4-.3-2.4-.6s.2-.5.5-.6c.5-.1 1.2-.9.5-2.2-4.3-7.5-8.7-14.9-13.5-22.7l-12.198 20.2c-.7 1.3-1 2.6-1 3.4 0 .7.5 1.1 1.3 1.3.5.1 1.1.2 1.4.2.5 0 .7.398.7.7 0 .398-.5.5-1 .5-1.9 0-7.1-.302-7.9-.302-.6 0-4.6.3-7.2.3-.6 0-.7-.3-.7-.5 0-.4.2-.7.6-.7.6 0 1.8-.2 3-.5 2.4-.6 4-2.1 6.5-6l14.297-21.897zm41.498-6.198c0-11.9 0-14.1-.2-16.5-.2-2.6-.6-3.9-3.3-4.2-.6-.1-2-.2-2.7-.2-.3 0-.6-.4-.6-.6 0-.5.4-.6 1.3-.6 3.6 0 8.8.2 9.2.2.5 0 17.2.1 19 0 1.5-.1 3-.4 3.6-.5.4-.1.7-.4 1.1-.4.302 0 .4.4.4.7 0 .5-.5 1.4-.6 3.6-.103.7-.302 4.2-.5 5.1-.103.4-.4.8-.7.8-.5 0-.602-.4-.602-1 0-.5-.1-1.8-.5-2.7-.5-1.3-1.4-1.8-5.7-2.3-1.4-.2-10.6-.3-11.5-.3-.397 0-.5.3-.5.8v20.8c0 .5 0 .8.5.8 1 0 11.5 0 13.3-.2 1.9-.2 3.1-.3 3.9-1.1.5-.5.9-1 1.2-1 .3 0 .5.2.5.6s-.5 1.7-.6 4.2c-.2 1.5-.4 4.4-.4 5 0 .6-.2 1.4-.7 1.4-.4 0-.5-.3-.5-.7 0-.7 0-1.5-.4-2.5-.3-1.1-1-2-4.1-2.3-2.2-.3-10.7-.4-12-.4-.5 0-.5.3-.5.5v6.4c0 2.6-.1 11.6 0 13.1.2 5.2 1.6 6.1 9.5 6.1 2.1 0 5.9 0 8-.8 2.1-.9 3.2-2.3 3.6-5.3.2-.9.4-1.2.8-1.2.5 0 .5.6.5 1.2 0 .5-.6 5.8-1.1 7.4-.5 2-1.4 2-4.4 2-6 0-10.6-.2-13.8-.3-3.3-.2-5.398-.2-6.6-.2-.2 0-1.7 0-3.398.1-1.5.1-3.3.2-4.6.2-.8 0-1.3-.2-1.3-.6 0-.3.2-.602.6-.602.7 0 1.7-.3 2.4-.4 1.5-.3 1.7-1.8 2.1-4.1.5-3.2.5-9.2.5-16.6V84.447h-.2zm46.8 28.597c-7.802-6.7-9.702-15.4-9.702-22.8 0-5.2 1.9-14.1 8.9-21 4.8-4.6 12-8.198 24.2-8.198 3.2 0 7.7.3 11.6.9 3 .5 5.5 1.1 8.1 1.2.802 0 1 .4 1 .8 0 .6-.198 1.5-.4 4.3-.1 2.5-.1 6.8-.198 7.9-.1 1.197-.5 1.6-.9 1.6-.5 0-.6-.5-.6-1.6 0-3-1.3-6.103-3.3-7.7-2.8-2.3-8.6-4.2-15.6-4.2-10.2 0-15.1 2.7-17.9 5.3-5.9 5.4-7.1 12.3-7.1 20.1 0 14.698 11.698 27.8 28.6 27.8 6 0 9.9-.5 13.1-3.602 1.7-1.7 2.8-5 3.1-6.4.2-.8.3-1.1.8-1.1.4 0 .7.5.7 1.1 0 .5-1.1 7.2-1.9 9.8-.5 1.4-.6 1.7-2 2.3-3.3 1.3-9.198 1.7-14.397 1.7-11.805.1-19.805-2.7-26.103-8.2zm55.696-28.597c0-11.9 0-14.1-.2-16.5-.198-2.4-.6-3.9-3.298-4.2-.6-.1-2-.2-2.7-.2-.3 0-.6-.4-.6-.6 0-.5.4-.6 1.3-.6 3.6 0 8.4.2 9.1.2s5.7-.2 8-.2c.9 0 1.4.2 1.4.6 0 .3-.4.6-.7.6-.5 0-1 0-2 .2-2.1.4-2.5 1.7-2.7 4.2-.2 2.4-.2 4.6-.2 16.5v10.8c0 11.1 2.4 15.7 5.9 18.8 3.9 3.5 7.3 4.2 11.8 4.2 4.898 0 9.6-2.2 12.3-5.4 3.698-4.4 4.497-10.8 4.497-18.6v-9.7c0-11.9-.1-14.1-.2-16.5-.1-2.4-.5-3.9-3.198-4.2-.602-.1-2-.2-2.7-.2-.4 0-.6-.4-.6-.6 0-.5.4-.6 1.3-.6 3.5 0 8.1.2 8.6.2s4.3-.2 6.7-.2c.9 0 1.3.2 1.3.6 0 .3-.3.6-.6.6-.5 0-1 0-2 .2-2.2.5-2.602 1.7-2.8 4.2-.2 2.4-.1 4.6-.1 16.5v8.2c0 8.3-1.1 17.6-7.4 23-5.802 5-11.9 5.6-16.6 5.6-2.6 0-10.9-.2-16.5-5.4-3.9-3.6-7-8.9-7-20.1v-11.4h-.1zm83.896 13.597c0 7.4 0 13.5.4 16.6.3 2.3.6 3.7 3.1 4.1 1.102.2 2.9.4 3.602.4.5 0 .6.4.6.6 0 .4-.4.6-1.3.6-4.3 0-9.4-.3-9.8-.3-.4 0-5.9.3-8.2.3-.9 0-1.3-.198-1.3-.6 0-.3.2-.5.6-.5.7 0 1.602-.2 2.3-.4 1.603-.398 2.103-1.898 2.4-4.198.4-3.198.4-9.198.4-16.6v-32.3l-11.5.2c-5 .1-6.9.6-8 2.4-.9 1.4-1 1.9-1.302 2.4-.2.6-.5.7-.8.7-.2 0-.5-.2-.5-.6 0-.803 1.6-7.7 1.7-8.3.2-.5.5-1.4.8-1.4.5 0 1.4.6 3.5.9 2.3.3 5.3.397 6.2.397h30c2.6 0 4.4-.2 5.7-.4 1.2-.2 1.897-.4 2.3-.4s.4.5.4.9c0 2.3-.303 7.9-.303 8.8 0 .6-.398 1-.7 1-.4 0-.5-.3-.6-1.4l-.1-.8c-.3-2.3-2-4.1-9.6-4.2l-9.9-.2v32.3h-.097zm41.4 0c0 7.4 0 13.5.4 16.6.3 2.3.5 3.7 2.9 4.1 1.2.2 2.9.4 3.6.4.5 0 .6.4.6.6 0 .4-.4.6-1.3.6-4.4 0-9.6-.3-9.9-.3-.5 0-5.398.3-7.898.3-.8 0-1.3-.198-1.3-.6 0-.3.198-.6.6-.6.7 0 1.7-.2 2.4-.4 1.5-.4 1.8-1.8 2.1-4.1.4-3.2.5-9.2.5-16.6v-13.6c0-11.9 0-14.1-.198-16.5-.2-2.6-.803-3.8-2.5-4.2-.9-.198-1.9-.3-2.4-.3-.4 0-.6-.398-.6-.6 0-.5.398-.6 1.3-.6 2.6 0 7.6.2 7.997.2.4 0 5.5-.2 8-.2.9 0 1.302.2 1.302.6 0 .3-.4.6-.6.6-.5 0-1.1 0-2 .2-2.2.5-2.6 1.5-2.8 4.2-.1 2.4-.1 4.6-.1 16.5v13.7h-.1zm41.7 12.2c4.6-10.3 15-36.5 16.7-42 .397-1.198.698-2.3.698-2.898 0-.6-.3-1.4-1.102-1.6-.9-.3-1.8-.3-2.7-.3-.5 0-.9-.3-.9-.6 0-.5.5-.6 1.802-.6 3.2 0 6.8.197 7.8.197.5 0 3.9-.2 6.2-.2.8 0 1.3.2 1.3.5 0 .4-.3.7-.9.7-.5 0-2.397 0-3.8.9-1.1.7-2.398 1.8-4.398 7-.9 2.2-4.8 11.4-8.9 20.8-4.9 11.2-8.4 19.498-10.2 23.3-2.2 4.6-2.6 5.8-3.397 5.8-.9 0-1.4-1-3-4.7l-19.5-47.1c-1.8-4.3-2.9-5.2-5.5-5.8-1.3-.3-2.6-.3-3.1-.3s-.6-.5-.6-.7c0-.5.8-.5 2.1-.5 3.8 0 8.3.2 9.3.2.8 0 4.3-.2 7.4-.2 1.4 0 2.2.2 2.2.5 0 .4-.3.7-.8.7-.9 0-2.2.1-2.9.4-.8.4-.9.8-.9 1.4 0 1 1 3.3 2.2 6.396l14.897 38.705zm37.896-25.797c0-11.9 0-14.1-.2-16.5-.198-2.6-.6-3.9-3.3-4.2-.6-.1-2-.2-2.7-.2-.3 0-.6-.4-.6-.6 0-.5.4-.6 1.3-.6 3.602 0 8.8.2 9.2.2.5 0 17.2.1 19 0 1.5-.1 3-.4 3.6-.5.4-.1.7-.4 1.1-.4.302 0 .4.4.4.7 0 .5-.5 1.4-.6 3.6-.1.7-.3 4.2-.5 5.1-.1.4-.4.8-.7.8-.5 0-.6-.4-.6-1 0-.5-.102-1.8-.5-2.7-.5-1.3-1.4-1.8-5.7-2.3-1.4-.2-10.6-.3-11.5-.3-.4 0-.5.3-.5.8v20.8c0 .5 0 .8.5.8 1 0 11.5 0 13.3-.2 1.9-.2 3.102-.3 3.9-1.1.5-.5.898-1 1.2-1 .298 0 .5.2.5.6s-.5 1.7-.603 4.2c-.2 1.5-.398 4.4-.398 5 0 .6-.2 1.4-.7 1.4-.4 0-.5-.3-.5-.7 0-.7 0-1.5-.4-2.5-.3-1.1-1-2-4.1-2.3-2.2-.3-10.698-.4-12-.4-.5 0-.5.3-.5.5v6.4c0 2.6-.1 11.6 0 13.1.2 5.2 1.6 6.1 9.5 6.1 2.1 0 5.9 0 8-.8 2.1-.9 3.2-2.3 3.6-5.3.2-.9.4-1.2.8-1.2.5 0 .5.6.5 1.2 0 .5-.6 5.8-1.1 7.4-.5 2-1.4 2-4.4 2-5.998 0-10.6-.2-13.8-.3-3.298-.2-5.397-.2-6.6-.2-.198 0-1.698 0-3.4.1-1.5.1-3.298.2-4.6.2-.798 0-1.298-.2-1.298-.6 0-.3.2-.602.6-.602.7 0 1.7-.3 2.4-.4 1.5-.3 1.7-1.8 2.1-4.1.5-3.2.5-9.2.5-16.6V84.447h-.2zM502.383 306.24c-8.5-7.6-10.6-17.6-10.6-25.9 0-5.9 2-16.1 9.8-23.897 5.3-5.3 13.2-9.4 26.7-9.4 3.5 0 8.398.3 12.697 1.1 3.3.6 6.1 1.1 8.9 1.3 1 .1 1.1.4 1.1 1 0 .7-.3 1.8-.4 4.9-.2 2.9-.2 7.7-.3 9-.1 1.3-.3 1.8-.8 1.8-.6 0-.7-.6-.7-1.8 0-3.4-1.4-7-3.7-8.9-3.1-2.6-9.8-5-17.5-5-11.697 0-17.1 3.4-20.197 6.4-6.4 6.1-7.9 13.9-7.9 22.9 0 16.7 12.9 32.1 31.6 32.1 6.602 0 11.7-.8 15.2-4.4 1.8-1.9 3-5.8 3.2-7.4.2-1 .3-1.3.898-1.3.4 0 .6.6.6 1.3 0 .6-1.1 8.2-1.9 11.2-.5 1.7-.698 1.8-2.298 2.5-3.5 1.4-10.2 2-15.8 2-12.798-.003-21.6-3.304-28.6-9.503zm71.498-13.2c0 11 .2 15.397 1.6 16.698 1.202 1.2 4.202 1.8 10.302 1.8 4 0 7.4-.1 9.3-2.3 1-1.1 1.6-2.7 1.8-4.2.1-.5.4-1 .8-1 .3 0 .5.4.5 1.1 0 .8-.5 5.3-1.1 7.4-.5 1.8-.8 2-4.9 2-5.5 0-9.8-.1-13.4-.3-3.5-.1-6.1-.2-8.397-.2-.4 0-1.7 0-3.2.1-1.6.1-3.2.2-4.5.2-.8 0-1.2-.2-1.2-.6 0-.3.2-.6.6-.6.7 0 1.7-.2 2.4-.4 1.5-.4 1.7-1.8 2-3.9.4-3.1.4-8.9.4-16.1v-13.1c0-11.6 0-13.7-.2-16-.2-2.5-.6-3.8-3.2-4.1-.6-.1-1.9-.2-2.6-.2-.3 0-.6-.3-.6-.6 0-.4.4-.602 1.2-.602 3.5 0 8.3.2 8.8.2.3 0 6.1-.2 8.5-.2.8 0 1.2.2 1.2.6 0 .3-.4.5-.603.5-.5 0-1.7.1-2.5.2-2.3.4-2.7 1.6-2.9 4.2-.1 2.4-.1 4.5-.1 16v13.404zm31.9-13.4c0-11.6 0-13.7-.2-16-.198-2.4-.6-3.8-3.198-4.1-.602-.1-1.9-.2-2.602-.2-.3 0-.6-.3-.6-.6 0-.4.4-.6 1.2-.6 3.5 0 8.1.2 8.8.2.7 0 5.5-.2 7.8-.2.9 0 1.3.2 1.3.6 0 .3-.3.6-.7.6-.5 0-1 0-1.9.2-2 .4-2.5 1.7-2.6 4.1-.198 2.4-.198 4.5-.198 16v10.5c0 10.8 2.398 15.2 5.7 18.2 3.8 3.398 7.1 4 11.5 4 4.698 0 9.3-2.102 11.9-5.3 3.6-4.3 4.397-10.4 4.397-18.1v-9.4c0-11.6-.103-13.7-.202-16-.1-2.4-.5-3.8-3.1-4.1-.6-.1-1.9-.2-2.6-.2-.4 0-.6-.3-.6-.6 0-.4.398-.6 1.2-.6 3.4 0 7.9.2 8.3.2.5 0 4.2-.2 6.5-.2.898 0 1.2.2 1.2.6 0 .3-.302.6-.603.6-.5 0-1 0-1.9.2-2.1.4-2.5 1.7-2.7 4.1-.2 2.4-.1 4.5-.1 16v8c0 8.1-1.1 17.1-7.2 22.3-5.6 4.8-11.6 5.398-16.1 5.398-2.5 0-10.6-.2-15.998-5.3-3.8-3.5-6.7-8.7-6.7-19.5V279.64h.003zm64.597 0c0-11.6 0-13.7-.2-16-.2-2.5-.6-3.9-3.2-4.3-.6-.1-1.9-.2-2.6-.2-.3 0-.6-.2-.6-.4 0-.4.4-.6 1.2-.6 3.5 0 8.5.2 8.9.2 1.8 0 5.4-.2 9-.2 12.897 0 16.196 7.4 16.196 11.4 0 5.9-3.898 9.5-7.8 13.1 5.9 1.8 13.6 7.1 13.6 15.5 0 8.3-6.198 16.6-19.4 16.6-1.397 0-4.196-.1-6.696-.3-2.5-.1-4.6-.2-5-.2-.2 0-1.6.1-3.2.1-1.6.1-3.4.2-4.6.2-.8 0-1.2-.2-1.2-.6 0-.3.2-.4.6-.4.7 0 1.7-.3 2.4-.4 1.5-.3 1.7-1.898 2-4.1.4-3.1.4-8.9.4-16.1v-13.3h.2zm6.7 1.6c0 .5.2.7.5.8.4.1 1.8.4 4.7.4 4.3 0 6-.2 7.5-1.9 1.7-1.8 3-4.4 3-8 0-5.7-3.2-12-10.9-12-.9 0-2.7.1-3.9.4-.7.2-1 .4-1 .8v19.5h.1zm0 8.3c0 5.8 0 14.7.1 15.897.3 3.6.3 4.5 2.6 5.6 2.1 1 5.3 1.1 6.7 1.1 5.1 0 11.3-1.898 11.3-11.5 0-3.3-1.3-9.697-7.4-13.6-2.6-1.697-5.1-1.6-6.9-1.897-1-.2-4.798-.2-6-.2-.298 0-.397.2-.397.5v4.1h-.004zM11.4 173.043c0-20.5 0-24.1-.3-28.3-.3-4.5-1.3-6.6-5.6-7.5-1-.3-3.3-.4-4.5-.4-.5 0-1-.3-1-.8 0-.8.7-1 2.1-1 5.9 0 14.2.4 14.8.4 1.6 0 9.8-.4 17.7-.4 13 0 36.998-1.2 52.598 15 6.6 6.8 12.7 17.7 12.7 33.3 0 16.5-6.8 29.3-14.2 37-5.6 5.898-17.4 15.1-39.7 15.1-5.6 0-12.6-.4-18.197-.8-5.8-.4-10.2-.802-10.9-.802-.3 0-2.5 0-5.198.102-2.6 0-5.6.302-7.6.302-1.4 0-2.1-.3-2.1-1 0-.4.3-.8 1-.8 1.2 0 2.8-.3 3.898-.5 2.6-.5 3.3-3.4 3.8-7.2.7-5.5.7-15.9.7-28.5v-23.2zm11 14.1c0 13.9.1 26 .3 28.5.1 3.3.4 8.5 1.4 10 1.7 2.5 6.8 5.198 22.3 5.198 12.198 0 23.498-4.5 31.198-12.196 6.8-6.7 10.5-19.3 10.5-31.3 0-16.7-7.2-27.398-12.6-33.1-12.3-13-27.3-14.8-42.9-14.8-2.6 0-7.5.4-8.5.9-1.198.5-1.6 1.2-1.6 2.6-.1 4.5-.1 17.8-.1 27.898v16.3h.002zm107.496 14.6c0 10.8 0 19.5.5 24.1.4 3.3.8 5.4 4.2 5.9 1.7.3 4.2.5 5.2.5.7 0 .9.5.9.898 0 .5-.5.9-1.8.9-6.4 0-13.9-.4-14.4-.4-.7 0-7.9.4-11.4.4-1.2 0-1.8-.3-1.8-.9 0-.397.3-.897.9-.897 1.1 0 2.5-.3 3.5-.5 2.2-.5 2.6-2.6 3-5.9.5-4.6.7-13.4.7-24.1v-19.698c0-17.3 0-20.5-.3-24-.3-3.8-1.2-5.5-3.7-6-1.3-.3-2.8-.4-3.5-.4-.5 0-.9-.5-.9-.897 0-.7.5-.9 1.8-.9 3.8 0 11 .3 11.7.3.5 0 8-.3 11.5-.3 1.3 0 1.8.3 1.8.9 0 .4-.5.9-.9.9-.8 0-1.6 0-2.9.3-3.1.7-3.8 2.2-4.1 6.2-.1 3.5-.1 6.697-.1 23.998v19.6h.1v-.003zm27.4-19.7c0-17.3 0-20.5-.3-24-.3-3.8-.9-5.6-4.7-6.2-.9-.1-2.9-.3-3.9-.3-.4 0-.9-.5-.9-.9 0-.7.5-.897 1.8-.897 5.2 0 13 .3 13.6.3 1.2 0 10.9-.3 14.4-.3 7.3 0 15.5.7 21.5 4.9 2.9 2.1 8 7.5 8 15.197 0 8.3-3.4 16.3-14.2 25.4 9.4 11.8 17.4 21.898 24.1 28.898 6.2 6.3 10 7.3 12.9 7.7 2.2.4 3.4.4 4.1.4.7 0 1 .5 1 .9 0 .7-.7.9-2.8.9h-7.2c-6.6 0-9.398-.7-12.3-2.2-5-2.6-9.2-8-15.7-16.4-4.898-6-10-13.2-12.5-16.3-.5-.5-.8-.7-1.6-.7l-14.7-.3c-.5 0-.8.3-.8.9v2.6c0 10.8 0 19.4.5 24 .4 3.3 1 5.4 4.6 5.9 1.602.3 4.102.5 5.102.5.8 0 .9.5.9.897 0 .5-.5.9-1.8.9-6.3 0-13.6-.4-14.2-.4-.1 0-7.898.4-11.398.4-1.2 0-1.8-.3-1.8-.9 0-.4.3-.9.9-.9 1 0 2.5-.3 3.5-.5 2.2-.5 2.5-2.6 3-5.9.7-4.6.7-13.397.7-24.098v-19.5h.197v.003zm10 9.5c0 .7.3 1 .8 1.4 1.7.897 7.6 1.7 12.7 1.7 2.8 0 5.897-.103 8.698-2 3.9-2.603 7-8.5 7-17 0-13.9-7.6-21.9-19.9-21.9-3.398 0-7.1.4-8.3.7-.5.3-.898.7-.898 1.3v35.8h-.1z"/><path d="M240.193 182.043c0-17.3 0-20.5-.3-24-.3-3.8-.9-5.6-4.7-6.2-.9-.1-2.9-.3-3.9-.3-.4 0-.9-.5-.9-.9 0-.7.5-.897 1.8-.897 5.2 0 12.7.3 13.4.3.8 0 24.9.1 27.5 0 2.2-.1 4.3-.5 5.2-.7.5-.1 1-.5 1.6-.5.4 0 .5.5.5 1 0 .8-.7 2.1-.898 5.2-.1 1-.4 6-.7 7.3-.1.5-.5 1.2-1 1.2-.7 0-.9-.5-.9-1.4 0-.8-.1-2.6-.7-3.9-.8-1.8-2-2.6-8.3-3.4-2-.3-15.3-.398-16.7-.398-.5 0-.7.4-.7 1.2v30.3c0 .8 0 1.2.7 1.2 1.4 0 16.7 0 19.3-.3 2.8-.3 4.5-.4 5.6-1.6.8-.8 1.3-1.4 1.7-1.4.4 0 .7.3.7.9 0 .7-.7 2.5-.9 6.2-.3 2.2-.5 6.396-.5 7.2 0 .896-.3 2.1-1 2.1-.5 0-.8-.4-.8-1 0-1.1 0-2.2-.5-3.7-.4-1.6-1.4-2.9-5.9-3.4-3.1-.4-15.497-.5-17.396-.5-.7 0-.802.4-.802.8v9.3c0 3.8-.1 16.8 0 19 .3 7.5 2.4 8.898 13.8 8.898 3 0 8.5 0 11.5-1.2 3-1.3 4.6-3.3 5.2-7.7.3-1.3.5-1.7 1.2-1.7s.8.9.8 1.7-.9 8.4-1.6 10.8c-.802 2.9-2 2.9-6.4 2.9-8.7 0-15.3-.3-20.1-.4-4.9-.3-7.9-.3-9.6-.3-.3 0-2.5 0-5 .1-2.2.103-4.9.3-6.7.3-1.2 0-1.8-.3-1.8-.897 0-.4.3-.9.9-.9 1 0 2.5-.4 3.5-.5 2.2-.4 2.5-2.6 3-5.9.7-4.6.7-13.398.7-24.1v-19.8h.096v-.007zm62.697 41.6c-11.3-9.7-14-22.4-14-33.1 0-7.5 2.8-20.5 13-30.398 7-6.7 17.4-11.9 35.2-11.9 4.6 0 11.197.4 16.798 1.3 4.3.8 8 1.6 11.8 1.7 1.2 0 1.4.5 1.4 1.2 0 .9-.302 2.2-.5 6.3-.1 3.7-.1 9.8-.302 11.4-.1 1.7-.7 2.4-1.3 2.4-.8 0-.9-.8-.9-2.4 0-4.3-1.8-8.8-4.9-11.2-4.1-3.4-12.5-6.2-22.7-6.2-14.797 0-21.895 3.9-25.997 7.7-8.5 7.9-10.4 17.8-10.4 29.1 0 21.398 16.9 40.398 41.6 40.398 8.7 0 14.4-.7 19-5.2 2.5-2.5 4.1-7.2 4.5-9.3.3-1.2.4-1.6 1.2-1.6.5 0 1.1.8 1.1 1.6s-1.6 10.5-2.8 14.3c-.7 2.1-.9 2.5-2.9 3.3-4.7 1.8-13.4 2.5-20.9 2.5-17.3 0-28.9-4-38-11.9zm111.296-21.9c0 10.8 0 19.5.5 24.1.4 3.3.9 5.4 4.5 5.9 1.6.3 4.2.5 5.2.5.8 0 .9.5.9.898 0 .5-.5.9-1.8.9-6.3 0-13.6-.4-14.3-.4-.5 0-8.5.4-11.9.4-1.3 0-1.8-.3-1.8-.9 0-.397.3-.8.9-.8 1.1 0 2.398-.3 3.398-.5 2.4-.5 3-2.8 3.4-6 .5-4.6.5-13.397.5-24.098v-46.8l-16.7.3c-7.2.102-10 .9-11.7 3.5-1.3 2-1.398 2.8-1.8 3.5-.3.9-.7 1-1.2 1-.3 0-.8-.3-.8-.898 0-1.2 2.4-11.1 2.5-12.1.3-.7.8-2.1 1.2-2.1.8 0 2 .9 5.1 1.3 3.3.4 7.7.5 9 .5h43.6c3.8 0 6.398-.3 8.3-.5 1.7-.3 2.8-.5 3.3-.5s.5.7.5 1.3c0 3.4-.398 11.4-.398 12.7 0 .897-.5 1.397-1 1.397s-.8-.398-.9-2l-.1-1.198c-.4-3.4-2.9-5.9-13.9-6.2l-14.398-.3v47.1H414.186zm79.197-53.5c26 0 45.6 15.9 45.6 41.8 0 24.9-18.5 45.5-46.3 45.5-31.6 0-45.1-23.7-45.1-43.8 0-17.9 13.902-43.5 45.8-43.5zm2.6 82.7c10.4 0 31.2-5.5 31.2-37.8 0-26.8-16.3-40.8-34.5-40.8-19.3 0-33.198 12.102-33.198 36.302.1 26.098 15.7 42.298 36.5 42.298h-.002zm54.097-48.9c0-17.3 0-20.5-.3-24-.3-3.8-.9-5.6-4.7-6.2-.898-.1-2.898-.3-3.898-.3-.4 0-.9-.5-.9-.9 0-.7.5-.897 1.8-.897 5.202 0 13 .3 13.603.3 1.2 0 10.898-.3 14.396-.3 7.302 0 15.5.7 21.5 4.9 2.9 2.1 8 7.5 8 15.197 0 8.3-3.397 16.3-14.198 25.4 9.4 11.8 17.4 21.898 24.1 28.898 6.2 6.3 10 7.3 12.9 7.7 2.2.4 3.398.4 4.1.4.703 0 1 .5 1 .9 0 .7-.7.9-2.8.9h-7.2c-6.6 0-9.4-.7-12.3-2.2-5-2.6-9.2-8-15.7-16.4-4.9-6-10-13.2-12.5-16.3-.5-.5-.8-.7-1.6-.7l-14.7-.3c-.5 0-.8.3-.8.9v2.6c0 10.8 0 19.4.5 24 .4 3.3 1 5.4 4.6 5.9 1.602.3 4.1.5 5.1.5.803 0 .9.5.9.897 0 .5-.5.9-1.8.9-6.3 0-13.6-.4-14.198-.4-.1 0-7.9.4-11.4.4-1.2 0-1.8-.3-1.8-.9 0-.4.3-.9.9-.9 1 0 2.5-.3 3.5-.5 2.2-.5 2.5-2.6 3-5.9.7-4.6.7-13.397.7-24.098v-19.5h.197v.003zm10 9.5c0 .7.3 1 .8 1.4 1.7.897 7.6 1.7 12.7 1.7 2.8 0 5.9-.103 8.7-2 3.9-2.603 7-8.5 7-17 0-13.9-7.6-21.9-19.9-21.9-3.4 0-7.1.4-8.3.7-.5.3-.898.7-.898 1.3v35.8h-.102zm69.9 40.997c-1.6-.8-1.7-1.2-1.7-4.2 0-5.5.5-9.998.7-11.8 0-1.198.3-1.8.9-1.8.698 0 1.1.4 1.1 1.3s0 2.5.4 4.103c1.8 8.1 10.5 11 18.198 11 11.398 0 17.3-6.4 17.3-14.8 0-8-4.302-11.8-14.6-19.4l-5.202-3.9c-12.5-9.3-16.498-16.1-16.498-23.896 0-13.1 10.4-21 25.602-21 4.6 0 9.2.7 11.896 1.3 2.2.5 3.102.5 4.102.5.898 0 1.2.1 1.2.8 0 .5-.5 4.2-.5 11.8 0 1.7-.1 2.5-.9 2.5s-.9-.5-1-1.4c-.1-1.3-1-4.3-1.7-5.5-.8-1.3-4.6-5.5-15-5.5-8.398 0-15.3 4.2-15.3 12.1 0 7.1 3.5 11.1 15 18.9l3.302 2.2c14 9.6 18.898 17.3 18.898 26.898 0 6.6-2.5 13.6-10.8 19-4.9 3.1-12.1 3.9-18.4 3.9-5.6-.104-12.298-.902-17-3.105zM19.4 27.548c0 3.4.9 3.8 4.7 3.9v1.2H8.9v-1.2c3.2-.1 4.1-.5 4.1-3.9v-22c0-3.4-.9-3.8-4-3.9V.45h27l.2 7.103h-1.4c-1.1-3.6-2.4-4.8-8.7-4.8h-4.898c-1.5 0-1.8.3-1.8 1.7v10.2h5.5c5 0 6.1-.9 6.7-4.3h1.2V21.75h-1.2c-.7-3.8-2.6-4.8-6.7-4.8h-5.5v10.6zm31.9 0c0 3.4.898 3.8 4.8 3.9v1.2h-16v-1.2c3.9-.1 4.8-.5 4.8-3.9v-22c0-3.4-.9-3.8-4.8-3.9V.45h16v1.2c-3.9.103-4.8.5-4.8 3.9v22zM89.297 6.45c0-3.1-.9-4.4-4.4-4.8V.45h11.4v1.2c-3.5.4-4.4 1.7-4.4 4.8v26.998h-1.6l-22-25.5v18.7c0 3.1.8 4.4 4.4 4.8v1.2h-11.4v-1.2c3.5-.4 4.4-1.7 4.4-4.8v-21.7c-1.1-1.898-2.4-2.8-4.4-3.3v-1.2h8.8l19.2 22.2v-16.2.002zm17.3 14.7l4.8-12.8 4.8 12.8h-9.6zm23.1 11.5v-1.2c-2.4 0-3-1-4.3-4l-11.4-27.8h-1.6l-11.8 28.8c-.8 2-1.9 2.6-3.9 3v1.2h10.3v-1.2c-2.2 0-3.3-.5-3.3-2 0-1.3 1.5-4.9 1.9-5.9h11.7c.398 1 1.898 4.6 1.898 5.9 0 1.6-1.2 2-3.4 2v1.2h13.9zm31.296-26.2c0-3.1-.898-4.4-4.398-4.8V.45h11.4v1.2c-3.5.4-4.4 1.7-4.4 4.8v26.998h-1.6l-22.1-25.5v18.7c0 3.1.9 4.4 4.4 4.8v1.2h-11.4v-1.2c3.5-.4 4.4-1.7 4.4-4.8v-21.7c-1.102-1.898-2.4-2.8-4.4-3.3v-1.2h8.8l19.2 22.2v-16.2h.1l-.002.002zm40.8 18.7c-3.4 5.8-7.8 8.398-14.5 8.398-10.5 0-16.7-6.9-16.7-17.2 0-7.4 5.8-16.6 17.1-16.6 3.4 0 8.2 1.9 8.9 1.9.9 0 1.2-.5 2-1.9h1.6l.7 10.8h-1.4c-1.9-5-5.3-8.6-10.897-8.6-7.6 0-10.9 8.2-10.9 14.4 0 8.7 3.8 14.5 11.8 14.5 6.3 0 9.7-4.7 11.2-6.7l1.097 1zm15.7 2.398c0 3.4.9 3.8 4.8 3.9v1.2h-16v-1.2c3.8-.1 4.8-.5 4.8-3.9v-22c0-3.4-.9-3.8-4.8-3.9V.45h16v1.2c-3.8.103-4.8.5-4.8 3.9v22zm18-6.397l4.897-12.8 4.8 12.8h-9.7.004zm23.098 11.5v-1.2c-2.4 0-3-1-4.3-4l-11.4-27.8h-1.6l-11.8 28.8c-.8 2-1.9 2.6-3.898 3v1.2h10.3v-1.2c-2.2 0-3.3-.5-3.3-2 0-1.3 1.5-4.9 1.8-5.9h11.7c.398 1 2 4.6 2 5.9 0 1.6-1.2 2-3.4 2v1.2h13.898zm2.8 0v-1.2c3.102-.102 4-.5 4-3.9v-22c0-3.4-.9-3.8-4-3.9V.45h14.9v1.2c-3.602.102-4.5.5-4.5 3.9v22.7c0 2 .6 2.6 4.198 2.6 5.8 0 9.2-1 12-6.8h1.2l-2.2 8.6h-25.6.003zm46.998-1.202c3.7-.1 4.6-.5 4.6-3.9V2.75h-4c-3.8 0-5.2 1.5-6.3 5.9h-1.4l.8-8.3h28.3l.8 8.3h-1.398c-1-4.4-2.5-5.9-6.3-5.9h-4v24.8c0 3.4.9 3.8 4.6 3.9v1.2H308.49v-1.2h-.1v-.002zm37.2-3.9c0 3.4.898 3.8 4.8 3.9v1.2h-16v-1.2c3.9-.1 4.8-.5 4.8-3.9v-22c0-3.4-.9-3.8-4.8-3.9V.45h16v1.2c-3.8.103-4.8.5-4.8 3.9v22zM384.286.45h11.1v1.2c-3.1.1-4 .5-4 3.9v22.098c0 3.4.9 3.8 4 3.9v1.2h-14.5v-1.2c3.2-.1 4.1-.5 4.1-3.9v-22.8h-.1l-10.8 28.2h-1.5l-10.5-28.2h-.1v21.8c0 3.1.9 4.4 4.4 4.8v1.2h-11.4v-1.2c3.5-.4 4.4-1.7 4.4-4.8v-22c0-2.2-.9-3.1-4.4-3.1v-1.2h11.7l8.6 22.4 9-22.3V.45zm15.7 32.2v-1.2c3.102-.102 4-.5 4-3.9v-22c0-3.4-.898-3.8-4-3.9V.45h27l.2 7.102h-1.3c-1.102-3.6-2.4-4.8-8.7-4.8h-4.9c-1.5 0-1.8.3-1.8 1.7v10.2h5.5c5 0 6.102-.9 6.8-4.3h1.2V21.75h-1.2c-.698-3.8-2.6-4.8-6.8-4.8h-5.5v11.2c0 2 .602 2.6 6.3 2.6 5.802 0 9.2-1 12-6.8h1.2l-2.2 8.6h-27.8v.1zm34.2-10.102h1.2c1.398 4.3 5.5 8.7 10.2 8.7 4.1 0 5.6-2.9 5.6-5.4 0-7.4-16.7-8.8-16.7-18 0-4.5 4.3-8.3 9.3-8.3 4.8 0 6.6 1.7 8.7 1.7.9 0 1.5-.7 1.7-1.7h1.2v10.3h-1.2c-1.3-4.7-4.7-8.1-9-8.1-3.6 0-4.9 2.3-4.9 4.5 0 6.6 16.7 6.8 16.7 18.1 0 5.1-4.2 9-10 9-5.7 0-7.2-2-9.4-2-.8 0-1.4.6-1.6 1.6h-1.7v-10.4h-.1z"/><g><path d="M693.278 146.945c-1.1-1.2-1.2-1.6-1.2-2.3 0-.4.7-.8 1.2-.8 2.1 0 7.2 1.6 9.3 2.4 1.6.8 2.3 1.5 2.3 3.5 0 9.4-6.8 20.6-11.4 26.197-.5.8-1.1 1.1-1.7 1.1-.3 0-.7-.3-.7-.7 0-.4.104-.8.5-1.7 2-4.3 4.4-11.397 4.4-18.997-.1-4.2-1.8-7.6-2.7-8.7z"/></g></svg>