<svg xmlns="http://www.w3.org/2000/svg" viewBox="0 0 706 315" id="Layer_1"><style id="style2">.st0{fill:#fff}.st2{fill:#333}</style><g id="g78"><g id="g64"><path id="path4" d="M300.3 115h-6.6l-18.9-26.7V115h-8V75h7.8l17.7 25.3V75h8v40z" class="st0"/><path id="path6" d="M324.3 115.7c-11.2 0-18.9-8.7-18.9-20.7s7.8-20.7 18.9-20.7c11.2 0 19 8.7 19 20.7s-7.8 20.7-19 20.7zm0-33.9c-6.3 0-10.4 5.4-10.4 13.3 0 7.8 4.1 13.3 10.4 13.3 6.4 0 10.6-5.4 10.6-13.3s-4.2-13.3-10.6-13.3z" class="st0"/><path id="path8" d="M382 115h-6.6l-18.9-26.7V115h-8V75h7.8l17.7 25.3V75h8v40z" class="st0"/><path id="path10" d="M387.7 91.9h15.7V99h-15.7v-7.1z" class="st0"/><path id="path12" d="M436.3 75v7.3h-19V91h17.2v7.1h-17.2v9.5h19v7.4h-27.2V75h27.2z" class="st0"/><path id="path14" d="M462.1 94.5L476 115h-9.4l-9.4-13.9-9.3 13.9h-9.2l13.9-20.4L439.3 75h9.5l8.6 13 8.8-13h9.1l-13.2 19.5z" class="st0"/><path id="path16" d="M506.9 75v7.3h-19V91h17.2v7.1h-17.2v9.5h19v7.4h-27.2V75h27.2z" class="st0"/><path id="path18" d="M530.6 74.3c4.4 0 7.8 1.2 10.4 3.1v8.4c-3-2.6-6.2-3.8-10-3.8-7.2 0-11.9 5.2-11.9 13.1 0 7.8 4.7 13 11.9 13 3.8 0 7-1.2 10.1-3.9v8.4c-2.6 2-6.1 3.1-10.4 3.1-11.6 0-19.9-8.3-19.9-20.7-.1-12.4 8.2-20.7 19.8-20.7z" class="st0"/><path id="path20" d="M546.5 98.9V75h8.4v23.1c0 6.9 3 10.1 8.3 10.1s8.3-3.3 8.3-10.1V75h8.4v24c0 11-6.6 16.8-16.6 16.8-10.1-.1-16.8-5.8-16.8-16.9z" class="st0"/><path id="path22" d="M584.1 75h34.2v7.3h-12.9V115H597V82.3h-12.9V75z" class="st0"/><path id="path24" d="M631.4 115H623V75h8.4v40z" class="st0"/><path id="path26" d="M650.6 115l-15-40.1h8.8l10.4 29 10.4-29h8.6L658.7 115h-8.1z" class="st0"/><path id="path28" d="M705 75v7.3h-19V91h17.2v7.1H686v9.5h19v7.4h-27.2V75H705z" class="st0"/><path id="path30" d="M266.8 138H281c12.1 0 19.8 7.8 19.8 20s-7.6 20-19.8 20h-14.2v-40zm13.8 32.7c7.6 0 11.8-4.9 11.8-12.7s-4.2-12.7-11.8-12.7h-5.5v25.4h5.5z" class="st0"/><path id="path32" d="M314.2 178.1h-8.4V138h8.4v40.1z" class="st0"/><path id="path34" d="M329.5 163.2v14.9h-8.3V138h16.5c8.4 0 14 4.5 14 12.7 0 6.4-3.5 10.4-9.1 11.8l10.6 15.5h-9.4l-9.9-14.9-4.4.1zm0-6.9h7.7c4.2 0 6.3-2.2 6.3-5.6 0-3.4-2.2-5.6-6.3-5.6h-7.7v11.2z" class="st0"/><path id="path36" d="M384.5 138v7.3h-19v8.8h17.2v7.1h-17.2v9.5h19v7.4h-27.2V138h27.2z" class="st0"/><path id="path38" d="M408.2 137.4c4.4 0 7.8 1.2 10.4 3.1v8.4c-3.1-2.7-6.3-3.9-10.1-3.9-7.2 0-11.9 5.2-11.9 13.1 0 7.8 4.7 13 11.9 13 3.8 0 7-1.2 10.1-3.9v8.4c-2.6 2-6.1 3.1-10.4 3.1-11.6 0-19.9-8.3-19.9-20.7 0-12.3 8.3-20.6 19.9-20.6z" class="st0"/><path id="path40" d="M422.3 138h34.2v7.3h-12.9v32.8h-8.4v-32.8h-12.9V138z" class="st0"/><path id="path42" d="M476.3 178.8c-11.2 0-18.9-8.7-18.9-20.7s7.8-20.7 18.9-20.7c11.2 0 19 8.7 19 20.7 0 11.9-7.9 20.7-19 20.7zm0-34c-6.3 0-10.4 5.4-10.4 13.3 0 7.8 4.1 13.3 10.4 13.3 6.4 0 10.6-5.4 10.6-13.3-.1-7.9-4.2-13.3-10.6-13.3z" class="st0"/><path id="path44" d="M508.7 163.2v14.9h-8.3V138h16.5c8.4 0 14 4.5 14 12.7 0 6.4-3.5 10.4-9.1 11.8l10.6 15.5H523l-9.9-14.9-4.4.1zm0-6.9h7.7c4.2 0 6.3-2.2 6.3-5.6 0-3.4-2.2-5.6-6.3-5.6h-7.7v11.2z" class="st0"/><path id="path46" d="M275.1 227.3v13.9h-8.3v-40.1h16.3c8.5 0 14.1 4.6 14.1 13.1s-5.6 13.1-14.1 13.1h-8zm7.5-19.1h-7.5v11.9h7.5c4.3 0 6.4-2.5 6.4-5.9 0-3.6-2.1-6-6.4-6z" class="st0"/><path id="path48" d="M310.4 226.2v14.9h-8.3V201h16.5c8.4 0 14 4.5 14 12.7 0 6.4-3.5 10.4-9.1 11.8l10.6 15.5h-9.4l-9.9-14.9-4.4.1zm0-6.8h7.7c4.2 0 6.3-2.2 6.3-5.6 0-3.4-2.2-5.6-6.3-5.6h-7.7v11.2z" class="st0"/><path id="path50" d="M355.2 241.8c-11.2 0-18.9-8.7-18.9-20.7s7.8-20.7 18.9-20.7c11.2 0 19 8.7 19 20.7s-7.8 20.7-19 20.7zm0-33.9c-6.3 0-10.4 5.4-10.4 13.3 0 7.8 4.1 13.3 10.4 13.3 6.4 0 10.6-5.4 10.6-13.3s-4.2-13.3-10.6-13.3z" class="st0"/><path id="path52" d="M404.4 232.3v-6.1h-6.8v-6.9H412v16.8c-3.9 4-9.2 5.7-14.5 5.7-12.1 0-19.8-8.5-19.8-20.6 0-12.4 8.6-20.8 20.6-20.8 4.6 0 8.6 1.2 11.5 3.3v8.4c-3.3-2.6-6.9-4-11.5-4-7.2 0-12.2 5.2-12.2 13.1 0 7.8 4.4 13.2 11.6 13.2 2.6 0 4.9-.7 6.7-2.1z" class="st0"/><path id="path54" d="M426.2 226.2v14.9h-8.3V201h16.5c8.4 0 14 4.5 14 12.7 0 6.4-3.5 10.4-9.1 11.8l10.6 15.5h-9.4l-9.9-14.9-4.4.1zm0-6.8h7.7c4.2 0 6.3-2.2 6.3-5.6 0-3.4-2.2-5.6-6.3-5.6h-7.7v11.2z" class="st0"/><path id="path56" d="M474.8 201.1l15.3 40.1h-8.5l-3.6-9.7h-15l-3.5 9.7h-8.4l15.3-40.1h8.4zm-9.2 23.3h9.8l-4.9-13.3-4.9 13.3z" class="st0"/><path id="path58" d="M514 232.5l-11.6-17.2v25.9h-8.2v-40.1h7.8l12.1 18.9 12.1-18.9h7.6v40.1h-8.2v-25.9l-11.4 17.2h-.2z" class="st0"/><path id="path60" d="M560.5 232.5L549 215.3v25.9h-8.2v-40.1h7.8l12.1 18.9 12.1-18.9h7.6v40.1h-8.2v-25.9l-11.4 17.2h-.3z" class="st0"/><path id="path62" d="M614.6 201.1v7.3h-19v8.8h17.2v7.1h-17.2v9.5h19v7.4h-27.2v-40.1h27.2z" class="st0"/></g><path id="rect66" class="st0" d="M217.7 71.8h6.9v171.4h-6.9z"/><g id="g76"><path id="rect68" fill="#fcd0b1" d="M1 71.8h171.3v171.4H1z"/><g id="g74"><path id="path70" d="M45.3 99.4v31.9h9.4c10.2 0 10.7-1.7 11.4-9.6h3V145h-3c-.8-8-1.3-9.5-11.4-9.5h-9.4v27.7c0 5.7 1.5 6.9 12 6.9v3.5H20.6v-3.5c7.6 0 10.3-.4 10.3-6.6v-57.9c0-6.2-2.7-6.6-10.3-6.6v-3.5h48.8c6.6 0 8.9-.3 10.9-.6V119h-3.2c-1.7-16.7-5-19.6-19.9-19.6H45.3z" class="st2"/><path id="path72" d="M146.9 95.6c6.6 0 8.9-.3 10.9-.6v24h-3.2c-1.7-16.7-5-19.6-19.9-19.6h-4.1v63.7c0 6 2.3 6.9 12 6.9v3.5h-38.5V170c9.6 0 12.1-.9 12.1-6.9V99.4H112c-14.9 0-18.3 2.8-19.9 19.6h-3.2V94.9c2.1.4 4.4.6 10.9.6l47.1.1z" class="st2"/></g></g></g></svg>