<?xml version="1.0" encoding="utf-8"?>
<!-- Generator: Adobe Illustrator 19.2.1, SVG Export Plug-In . SVG Version: 6.00 Build 0)  -->
<svg version="1.1" id="Layer_1" xmlns="http://www.w3.org/2000/svg" xmlns:xlink="http://www.w3.org/1999/xlink" x="0px" y="0px"
	 viewBox="0 0 841.9 595.3" style="enable-background:new 0 0 841.9 595.3;" xml:space="preserve">
<style type="text/css">
	.Arched_x0020_Green{fill:url(#SVGID_1_);stroke:#FFFFFF;stroke-width:0.25;stroke-miterlimit:1;}
</style>
<linearGradient id="SVGID_1_" gradientUnits="userSpaceOnUse" x1="0" y1="595.2813" x2="0.7071" y2="594.5742">
	<stop  offset="0" style="stop-color:#20AC4B"/>
	<stop  offset="0.9831" style="stop-color:#19361A"/>
</linearGradient>
<g>
	<g>
		<path d="M67.3,138.9c0.2,7.4,1.1,9.8,3.5,10.5c1.7,0.5,3.7,0.5,4.5,0.5c0.5,0,0.7,0.2,0.7,0.5c0,0.5-0.5,0.7-1.6,0.7
			c-5.1,0-8.8-0.3-9.6-0.3c-0.8,0-4.6,0.3-8.7,0.3c-0.9,0-1.4-0.1-1.4-0.7c0-0.4,0.3-0.5,0.7-0.5c0.7,0,2.3-0.1,3.7-0.5
			c2.3-0.6,2.7-3.3,2.7-11.5L62,86.1c0-3.5,0.3-4.5,1-4.5c0.7,0,2.3,2,3.2,2.9c1.4,1.5,14.8,16.1,28.7,31
			c8.9,9.6,18.8,20.6,21.7,23.6l-1-45.9c-0.1-5.9-0.7-7.9-3.5-8.6c-1.6-0.4-3.7-0.5-4.4-0.5c-0.6,0-0.7-0.3-0.7-0.6
			c0-0.5,0.7-0.6,1.8-0.6c4.1,0,8.4,0.3,9.4,0.3c1,0,4-0.3,7.7-0.3c1,0,1.6,0.1,1.6,0.6c0,0.4-0.4,0.6-1,0.6c-0.5,0-1.1,0-2.2,0.3
			c-3,0.6-3.3,2.6-3.3,8l-0.2,52.9c0,6-0.2,6.4-0.8,6.4c-0.7,0-1.8-1-6.6-5.8c-1-0.9-14-14.2-23.6-24.5
			C79.2,110.2,69,98.9,66.1,95.6L67.3,138.9z"/>
		<path d="M165.8,92c17.9,0,31.4,10.9,31.4,28.8c0,17.2-12.7,31.3-31.9,31.3c-21.8,0-31.1-16.4-31.1-30.2
			C134.2,109.6,143.8,92,165.8,92z M167.6,149c7.1,0,21.5-3.8,21.5-26c0-18.4-11.2-28.1-23.8-28.1c-13.3,0-22.9,8.3-22.9,25
			C142.5,137.8,153.2,149,167.6,149z"/>
		<path d="M213.6,140.7c0.2,6.3,0.9,8.2,3.1,8.8c1.4,0.4,3.3,0.5,4,0.5c0.4,0,0.6,0.3,0.6,0.6c0,0.5-0.5,0.6-1.4,0.6
			c-4.5,0-7.7-0.3-8.4-0.3c-0.7,0-4.1,0.3-7.7,0.3c-0.8,0-1.3-0.1-1.3-0.6c0-0.4,0.3-0.6,0.6-0.6c0.6,0,2.1-0.1,3.3-0.5
			c2-0.5,2.3-2.6,2.3-9.6v-44c0-3.1,0.5-3.9,1.1-3.9c0.9,0,2.3,1.5,3.1,2.3c1.3,1.3,12.8,13.6,25.1,26.2
			c7.9,8.1,16.4,17.3,18.8,19.8l-0.8-38.5c-0.1-5-0.5-6.7-3-7.1c-1.4-0.3-3.3-0.4-3.9-0.4c-0.5,0-0.6-0.5-0.6-0.7
			c0-0.5,0.6-0.5,1.5-0.5c3.6,0,7.4,0.2,8.3,0.2c0.9,0,3.5-0.2,6.8-0.2c0.8,0,1.4,0.1,1.4,0.5c0,0.3-0.4,0.7-0.9,0.7
			c-0.4,0-1,0-1.9,0.2c-2.6,0.5-2.8,2.1-2.8,6.7l-0.2,45c0,5.1-0.1,5.5-0.6,5.5c-0.8,0-1.6-0.6-6.1-4.7c-0.8-0.7-12.3-12-20.7-20.8
			c-9.2-9.7-18.2-19.1-20.6-21.8L213.6,140.7z"/>
		<path d="M297.2,122.9c1.5,0,2.7,0.2,2.7,0.9c0,1.1-1.7,1.3-3.2,1.5c-2.4,0.4-18.4,2.5-21.5,3.3c-1.7,0.5-3.3,1.4-3.7,1.4
			c-0.5,0-0.6-0.5-0.5-1.4l1.4-5.1c0.2-0.6,0.5-0.7,2-0.7H297.2z"/>
		<path d="M315.5,109.1c0-14.1,0-16.6-0.2-19.5c-0.2-3.1-0.9-4.5-3.9-5.2c-0.7-0.2-2.3-0.3-3.1-0.3c-0.4,0-0.7-0.2-0.7-0.5
			c0-0.5,0.5-0.7,1.4-0.7c2.1,0,4.5,0,6.5,0.1l3.7,0.2c0.6,0,18.6,0,20.7-0.1c1.7-0.1,3.2-0.3,3.9-0.5c0.5-0.1,0.8-0.5,1.3-0.5
			c0.3,0,0.4,0.4,0.4,0.8c0,0.6-0.5,1.7-0.7,4.2c-0.1,0.9-0.3,4.9-0.5,6c-0.1,0.5-0.3,1-0.6,1c-0.5,0-0.7-0.5-0.7-1.2
			c0-0.6-0.1-2.2-0.5-3.3c-0.6-1.4-1.5-2.5-6.4-3.1c-1.5-0.2-11.4-0.3-12.4-0.3c-0.4,0-0.5,0.3-0.5,0.9v24.9c0,0.6,0.1,0.9,0.5,0.9
			c1.2,0,12.3,0,14.4-0.2c2.2-0.2,3.4-0.4,4.2-1.3c0.6-0.7,1-1.2,1.4-1.2c0.3,0,0.5,0.2,0.5,0.7c0,0.5-0.5,2.1-0.7,5.1
			c-0.2,1.8-0.4,5.2-0.4,5.8c0,0.7,0,1.7-0.6,1.7c-0.5,0-0.6-0.4-0.6-0.8c0-0.9,0-1.8-0.4-3c-0.4-1.3-1.2-2.8-4.7-3.2
			c-2.4-0.3-11.4-0.5-12.9-0.5c-0.5,0-0.6,0.3-0.6,0.6v8c0,3.1-0.1,13.6,0,15.4c0.3,6.2,1.6,7.4,10.5,7.4c2.3,0,6.3,0,8.7-1
			c2.4-1,3.4-2.8,4.1-6.5c0.2-1,0.4-1.4,0.8-1.4c0.5,0,0.5,0.7,0.5,1.4c0,0.7-0.7,6.9-1.2,8.8c-0.6,2.3-1.4,2.3-4.9,2.3
			c-6.8,0-11.7-0.2-15.3-0.3c-3.5-0.2-5.7-0.3-7-0.3c-0.2,0-1.7,0-3.6,0.1c-1.8,0-3.9,0.2-5.2,0.2c-1,0-1.4-0.2-1.4-0.7
			c0-0.3,0.2-0.5,0.7-0.5c0.8,0,1.9-0.2,2.7-0.4c1.8-0.4,2.3-2.4,2.6-5c0.5-3.8,0.5-10.9,0.5-19.6V109.1z"/>
		<path d="M378.4,121.5l-12.6-20.6c-1.8-3-3.3-5.2-6.1-6c-1.3-0.4-2.9-0.5-3.3-0.5c-0.5,0-0.7-0.5-0.7-0.7c0-0.4,0.4-0.5,1.4-0.5
			c2.3,0,8.7,0.2,9.3,0.2c0.7,0,5.1-0.2,7.8-0.2c1.1,0,1.4,0.2,1.4,0.5c0,0.4-0.3,0.7-0.7,0.7c-0.5,0-1.5,0-2.2,0.2
			c-0.7,0.1-1,0.6-1,1.2c0,0.7,0.4,1.7,0.8,2.5c3.3,6.1,6.3,11.6,10.5,18.2c2.3-3.3,10.8-16.3,11.5-17.9c0.6-1.1,0.8-1.8,0.8-2.7
			c0-0.5-0.5-1-1.4-1.3c-0.8-0.2-1.7-0.2-2.2-0.2c-0.5,0-0.7-0.4-0.7-0.7c0-0.4,0.4-0.5,1.4-0.5c3,0,6.3,0.2,7,0.2
			c0.7,0,4-0.2,6.7-0.2c0.9,0,1.3,0.2,1.3,0.5c0,0.3-0.3,0.7-0.8,0.7c-0.6,0-1.8,0.1-2.7,0.4c-2.3,0.7-3.7,2.7-6,6.1L385,119.4
			c1.5,2.3,15.1,24.7,16.8,26.7c1.3,1.6,2.2,2.7,4.5,3.3c1.1,0.3,2.3,0.5,2.7,0.5c0.5,0,0.6,0.3,0.6,0.6c0,0.4-0.4,0.6-1.1,0.6
			c-4.9,0-8.7,0-13-0.2c-2.1-0.1-2.4-0.3-2.4-0.6c0-0.3,0.2-0.5,0.5-0.6c0.5-0.1,1.2-0.9,0.5-2.2c-4.3-7.5-8.7-14.9-13.5-22.7
			L368.4,145c-0.7,1.3-1,2.6-1,3.4c0,0.7,0.5,1.1,1.3,1.3c0.5,0.1,1.1,0.2,1.4,0.2c0.5,0,0.7,0.4,0.7,0.7c0,0.4-0.5,0.5-1,0.5
			c-1.9,0-7.1-0.3-7.9-0.3c-0.6,0-4.6,0.3-7.2,0.3c-0.6,0-0.7-0.3-0.7-0.5c0-0.4,0.2-0.7,0.6-0.7c0.6,0,1.8-0.2,3-0.5
			c2.4-0.6,4-2.1,6.5-6L378.4,121.5z"/>
		<path d="M419.9,115.3c0-11.9,0-14.1-0.2-16.5c-0.2-2.6-0.6-3.9-3.3-4.2c-0.6-0.1-2-0.2-2.7-0.2c-0.3,0-0.6-0.4-0.6-0.6
			c0-0.5,0.4-0.6,1.3-0.6c3.6,0,8.8,0.2,9.2,0.2c0.5,0,17.2,0.1,19,0c1.5-0.1,3-0.4,3.6-0.5c0.4-0.1,0.7-0.4,1.1-0.4
			c0.3,0,0.4,0.4,0.4,0.7c0,0.5-0.5,1.4-0.6,3.6c-0.1,0.7-0.3,4.2-0.5,5.1c-0.1,0.4-0.4,0.8-0.7,0.8c-0.5,0-0.6-0.4-0.6-1
			c0-0.5-0.1-1.8-0.5-2.7c-0.5-1.3-1.4-1.8-5.7-2.3c-1.4-0.2-10.6-0.3-11.5-0.3c-0.4,0-0.5,0.3-0.5,0.8V118c0,0.5,0,0.8,0.5,0.8
			c1,0,11.5,0,13.3-0.2c1.9-0.2,3.1-0.3,3.9-1.1c0.5-0.5,0.9-1,1.2-1c0.3,0,0.5,0.2,0.5,0.6s-0.5,1.7-0.6,4.2
			c-0.2,1.5-0.4,4.4-0.4,5c0,0.6-0.2,1.4-0.7,1.4c-0.4,0-0.5-0.3-0.5-0.7c0-0.7,0-1.5-0.4-2.5c-0.3-1.1-1-2-4.1-2.3
			c-2.2-0.3-10.7-0.4-12-0.4c-0.5,0-0.5,0.3-0.5,0.5v6.4c0,2.6-0.1,11.6,0,13.1c0.2,5.2,1.6,6.1,9.5,6.1c2.1,0,5.9,0,8-0.8
			c2.1-0.9,3.2-2.3,3.6-5.3c0.2-0.9,0.4-1.2,0.8-1.2c0.5,0,0.5,0.6,0.5,1.2c0,0.5-0.6,5.8-1.1,7.4c-0.5,2-1.4,2-4.4,2
			c-6,0-10.6-0.2-13.8-0.3c-3.3-0.2-5.4-0.2-6.6-0.2c-0.2,0-1.7,0-3.4,0.1c-1.5,0.1-3.3,0.2-4.6,0.2c-0.8,0-1.3-0.2-1.3-0.6
			c0-0.3,0.2-0.6,0.6-0.6c0.7,0,1.7-0.3,2.4-0.4c1.5-0.3,1.7-1.8,2.1-4.1c0.5-3.2,0.5-9.2,0.5-16.6V115.3z"/>
		<path d="M466.7,143.9c-7.8-6.7-9.7-15.4-9.7-22.8c0-5.2,1.9-14.1,8.9-21c4.8-4.6,12-8.2,24.2-8.2c3.2,0,7.7,0.3,11.6,0.9
			c3,0.5,5.5,1.1,8.1,1.2c0.8,0,1,0.4,1,0.8c0,0.6-0.2,1.5-0.4,4.3c-0.1,2.5-0.1,6.8-0.2,7.9c-0.1,1.2-0.5,1.6-0.9,1.6
			c-0.5,0-0.6-0.5-0.6-1.6c0-3-1.3-6.1-3.3-7.7c-2.8-2.3-8.6-4.2-15.6-4.2c-10.2,0-15.1,2.7-17.9,5.3c-5.9,5.4-7.1,12.3-7.1,20.1
			c0,14.7,11.7,27.8,28.6,27.8c6,0,9.9-0.5,13.1-3.6c1.7-1.7,2.8-5,3.1-6.4c0.2-0.8,0.3-1.1,0.8-1.1c0.4,0,0.7,0.5,0.7,1.1
			c0,0.5-1.1,7.2-1.9,9.8c-0.5,1.4-0.6,1.7-2,2.3c-3.3,1.3-9.2,1.7-14.4,1.7C481,152.2,473,149.4,466.7,143.9z"/>
		<path d="M522.4,115.3c0-11.9,0-14.1-0.2-16.5c-0.2-2.4-0.6-3.9-3.3-4.2c-0.6-0.1-2-0.2-2.7-0.2c-0.3,0-0.6-0.4-0.6-0.6
			c0-0.5,0.4-0.6,1.3-0.6c3.6,0,8.4,0.2,9.1,0.2c0.7,0,5.7-0.2,8-0.2c0.9,0,1.4,0.2,1.4,0.6c0,0.3-0.4,0.6-0.7,0.6c-0.5,0-1,0-2,0.2
			c-2.1,0.4-2.5,1.7-2.7,4.2c-0.2,2.4-0.2,4.6-0.2,16.5v10.8c0,11.1,2.4,15.7,5.9,18.8c3.9,3.5,7.3,4.2,11.8,4.2
			c4.9,0,9.6-2.2,12.3-5.4c3.7-4.4,4.5-10.8,4.5-18.6v-9.7c0-11.9-0.1-14.1-0.2-16.5c-0.1-2.4-0.5-3.9-3.2-4.2
			c-0.6-0.1-2-0.2-2.7-0.2c-0.4,0-0.6-0.4-0.6-0.6c0-0.5,0.4-0.6,1.3-0.6c3.5,0,8.1,0.2,8.6,0.2c0.5,0,4.3-0.2,6.7-0.2
			c0.9,0,1.3,0.2,1.3,0.6c0,0.3-0.3,0.6-0.6,0.6c-0.5,0-1,0-2,0.2c-2.2,0.5-2.6,1.7-2.8,4.2c-0.2,2.4-0.1,4.6-0.1,16.5v8.2
			c0,8.3-1.1,17.6-7.4,23c-5.8,5-11.9,5.6-16.6,5.6c-2.6,0-10.9-0.2-16.5-5.4c-3.9-3.6-7-8.9-7-20.1V115.3z"/>
		<path d="M606.3,128.9c0,7.4,0,13.5,0.4,16.6c0.3,2.3,0.6,3.7,3.1,4.1c1.1,0.2,2.9,0.4,3.6,0.4c0.5,0,0.6,0.4,0.6,0.6
			c0,0.4-0.4,0.6-1.3,0.6c-4.3,0-9.4-0.3-9.8-0.3c-0.4,0-5.9,0.3-8.2,0.3c-0.9,0-1.3-0.2-1.3-0.6c0-0.3,0.2-0.5,0.6-0.5
			c0.7,0,1.6-0.2,2.3-0.4c1.6-0.4,2.1-1.9,2.4-4.2c0.4-3.2,0.4-9.2,0.4-16.6V96.6l-11.5,0.2c-5,0.1-6.9,0.6-8,2.4
			c-0.9,1.4-1,1.9-1.3,2.4c-0.2,0.6-0.5,0.7-0.8,0.7c-0.2,0-0.5-0.2-0.5-0.6c0-0.8,1.6-7.7,1.7-8.3c0.2-0.5,0.5-1.4,0.8-1.4
			c0.5,0,1.4,0.6,3.5,0.9c2.3,0.3,5.3,0.4,6.2,0.4h30c2.6,0,4.4-0.2,5.7-0.4c1.2-0.2,1.9-0.4,2.3-0.4c0.4,0,0.4,0.5,0.4,0.9
			c0,2.3-0.3,7.9-0.3,8.8c0,0.6-0.4,1-0.7,1c-0.4,0-0.5-0.3-0.6-1.4l-0.1-0.8c-0.3-2.3-2-4.1-9.6-4.2l-9.9-0.2V128.9z"/>
		<path d="M647.7,128.9c0,7.4,0,13.5,0.4,16.6c0.3,2.3,0.5,3.7,2.9,4.1c1.2,0.2,2.9,0.4,3.6,0.4c0.5,0,0.6,0.4,0.6,0.6
			c0,0.4-0.4,0.6-1.3,0.6c-4.4,0-9.6-0.3-9.9-0.3c-0.5,0-5.4,0.3-7.9,0.3c-0.8,0-1.3-0.2-1.3-0.6c0-0.3,0.2-0.6,0.6-0.6
			c0.7,0,1.7-0.2,2.4-0.4c1.5-0.4,1.8-1.8,2.1-4.1c0.4-3.2,0.5-9.2,0.5-16.6v-13.6c0-11.9,0-14.1-0.2-16.5c-0.2-2.6-0.8-3.8-2.5-4.2
			c-0.9-0.2-1.9-0.3-2.4-0.3c-0.4,0-0.6-0.4-0.6-0.6c0-0.5,0.4-0.6,1.3-0.6c2.6,0,7.6,0.2,8,0.2c0.4,0,5.5-0.2,8-0.2
			c0.9,0,1.3,0.2,1.3,0.6c0,0.3-0.4,0.6-0.6,0.6c-0.5,0-1.1,0-2,0.2c-2.2,0.5-2.6,1.5-2.8,4.2c-0.1,2.4-0.1,4.6-0.1,16.5V128.9z"/>
		<path d="M689.4,141.1c4.6-10.3,15-36.5,16.7-42c0.4-1.2,0.7-2.3,0.7-2.9c0-0.6-0.3-1.4-1.1-1.6c-0.9-0.3-1.8-0.3-2.7-0.3
			c-0.5,0-0.9-0.3-0.9-0.6c0-0.5,0.5-0.6,1.8-0.6c3.2,0,6.8,0.2,7.8,0.2c0.5,0,3.9-0.2,6.2-0.2c0.8,0,1.3,0.2,1.3,0.5
			c0,0.4-0.3,0.7-0.9,0.7c-0.5,0-2.4,0-3.8,0.9c-1.1,0.7-2.4,1.8-4.4,7c-0.9,2.2-4.8,11.4-8.9,20.8c-4.9,11.2-8.4,19.5-10.2,23.3
			c-2.2,4.6-2.6,5.8-3.4,5.8c-0.9,0-1.4-1-3-4.7l-19.5-47.1c-1.8-4.3-2.9-5.2-5.5-5.8c-1.3-0.3-2.6-0.3-3.1-0.3
			c-0.5,0-0.6-0.5-0.6-0.7c0-0.5,0.8-0.5,2.1-0.5c3.8,0,8.3,0.2,9.3,0.2c0.8,0,4.3-0.2,7.4-0.2c1.4,0,2.2,0.2,2.2,0.5
			c0,0.4-0.3,0.7-0.8,0.7c-0.9,0-2.2,0.1-2.9,0.4c-0.8,0.4-0.9,0.8-0.9,1.4c0,1,1,3.3,2.2,6.4L689.4,141.1z"/>
		<path d="M727.3,115.3c0-11.9,0-14.1-0.2-16.5c-0.2-2.6-0.6-3.9-3.3-4.2c-0.6-0.1-2-0.2-2.7-0.2c-0.3,0-0.6-0.4-0.6-0.6
			c0-0.5,0.4-0.6,1.3-0.6c3.6,0,8.8,0.2,9.2,0.2c0.5,0,17.2,0.1,19,0c1.5-0.1,3-0.4,3.6-0.5c0.4-0.1,0.7-0.4,1.1-0.4
			c0.3,0,0.4,0.4,0.4,0.7c0,0.5-0.5,1.4-0.6,3.6c-0.1,0.7-0.3,4.2-0.5,5.1c-0.1,0.4-0.4,0.8-0.7,0.8c-0.5,0-0.6-0.4-0.6-1
			c0-0.5-0.1-1.8-0.5-2.7c-0.5-1.3-1.4-1.8-5.7-2.3c-1.4-0.2-10.6-0.3-11.5-0.3c-0.4,0-0.5,0.3-0.5,0.8V118c0,0.5,0,0.8,0.5,0.8
			c1,0,11.5,0,13.3-0.2c1.9-0.2,3.1-0.3,3.9-1.1c0.5-0.5,0.9-1,1.2-1c0.3,0,0.5,0.2,0.5,0.6s-0.5,1.7-0.6,4.2
			c-0.2,1.5-0.4,4.4-0.4,5c0,0.6-0.2,1.4-0.7,1.4c-0.4,0-0.5-0.3-0.5-0.7c0-0.7,0-1.5-0.4-2.5c-0.3-1.1-1-2-4.1-2.3
			c-2.2-0.3-10.7-0.4-12-0.4c-0.5,0-0.5,0.3-0.5,0.5v6.4c0,2.6-0.1,11.6,0,13.1c0.2,5.2,1.6,6.1,9.5,6.1c2.1,0,5.9,0,8-0.8
			c2.1-0.9,3.2-2.3,3.6-5.3c0.2-0.9,0.4-1.2,0.8-1.2c0.5,0,0.5,0.6,0.5,1.2c0,0.5-0.6,5.8-1.1,7.4c-0.5,2-1.4,2-4.4,2
			c-6,0-10.6-0.2-13.8-0.3c-3.3-0.2-5.4-0.2-6.6-0.2c-0.2,0-1.7,0-3.4,0.1c-1.5,0.1-3.3,0.2-4.6,0.2c-0.8,0-1.3-0.2-1.3-0.6
			c0-0.3,0.2-0.6,0.6-0.6c0.7,0,1.7-0.3,2.4-0.4c1.5-0.3,1.7-1.8,2.1-4.1c0.5-3.2,0.5-9.2,0.5-16.6V115.3z"/>
	</g>
	<g>
		<path d="M553.6,337.1c-8.5-7.6-10.6-17.6-10.6-25.9c0-5.9,2-16.1,9.8-23.9c5.3-5.3,13.2-9.4,26.7-9.4c3.5,0,8.4,0.3,12.7,1.1
			c3.3,0.6,6.1,1.1,8.9,1.3c1,0.1,1.1,0.4,1.1,1c0,0.7-0.3,1.8-0.4,4.9c-0.2,2.9-0.2,7.7-0.3,9c-0.1,1.3-0.3,1.8-0.8,1.8
			c-0.6,0-0.7-0.6-0.7-1.8c0-3.4-1.4-7-3.7-8.9c-3.1-2.6-9.8-5-17.5-5c-11.7,0-17.1,3.4-20.2,6.4c-6.4,6.1-7.9,13.9-7.9,22.9
			c0,16.7,12.9,32.1,31.6,32.1c6.6,0,11.7-0.8,15.2-4.4c1.8-1.9,3-5.8,3.2-7.4c0.2-1,0.3-1.3,0.9-1.3c0.4,0,0.6,0.6,0.6,1.3
			c0,0.6-1.1,8.2-1.9,11.2c-0.5,1.7-0.7,1.8-2.3,2.5c-3.5,1.4-10.2,2-15.8,2C569.4,346.6,560.6,343.3,553.6,337.1z"/>
		<path d="M625.1,323.9c0,11,0.2,15.4,1.6,16.7c1.2,1.2,4.2,1.8,10.3,1.8c4,0,7.4-0.1,9.3-2.3c1-1.1,1.6-2.7,1.8-4.2
			c0.1-0.5,0.4-1,0.8-1c0.3,0,0.5,0.4,0.5,1.1c0,0.8-0.5,5.3-1.1,7.4c-0.5,1.8-0.8,2-4.9,2c-5.5,0-9.8-0.1-13.4-0.3
			c-3.5-0.1-6.1-0.2-8.4-0.2c-0.4,0-1.7,0-3.2,0.1c-1.6,0.1-3.2,0.2-4.5,0.2c-0.8,0-1.2-0.2-1.2-0.6c0-0.3,0.2-0.6,0.6-0.6
			c0.7,0,1.7-0.2,2.4-0.4c1.5-0.4,1.7-1.8,2-3.9c0.4-3.1,0.4-8.9,0.4-16.1v-13.1c0-11.6,0-13.7-0.2-16c-0.2-2.5-0.6-3.8-3.2-4.1
			c-0.6-0.1-1.9-0.2-2.6-0.2c-0.3,0-0.6-0.3-0.6-0.6c0-0.4,0.4-0.6,1.2-0.6c3.5,0,8.3,0.2,8.8,0.2c0.3,0,6.1-0.2,8.5-0.2
			c0.8,0,1.2,0.2,1.2,0.6c0,0.3-0.4,0.5-0.6,0.5c-0.5,0-1.7,0.1-2.5,0.2c-2.3,0.4-2.7,1.6-2.9,4.2c-0.1,2.4-0.1,4.5-0.1,16V323.9z"
			/>
		<path d="M657,310.5c0-11.6,0-13.7-0.2-16c-0.2-2.4-0.6-3.8-3.2-4.1c-0.6-0.1-1.9-0.2-2.6-0.2c-0.3,0-0.6-0.3-0.6-0.6
			c0-0.4,0.4-0.6,1.2-0.6c3.5,0,8.1,0.2,8.8,0.2s5.5-0.2,7.8-0.2c0.9,0,1.3,0.2,1.3,0.6c0,0.3-0.3,0.6-0.7,0.6c-0.5,0-1,0-1.9,0.2
			c-2,0.4-2.5,1.7-2.6,4.1c-0.2,2.4-0.2,4.5-0.2,16V321c0,10.8,2.4,15.2,5.7,18.2c3.8,3.4,7.1,4,11.5,4c4.7,0,9.3-2.1,11.9-5.3
			c3.6-4.3,4.4-10.4,4.4-18.1v-9.4c0-11.6-0.1-13.7-0.2-16c-0.1-2.4-0.5-3.8-3.1-4.1c-0.6-0.1-1.9-0.2-2.6-0.2
			c-0.4,0-0.6-0.3-0.6-0.6c0-0.4,0.4-0.6,1.2-0.6c3.4,0,7.9,0.2,8.3,0.2c0.5,0,4.2-0.2,6.5-0.2c0.9,0,1.2,0.2,1.2,0.6
			c0,0.3-0.3,0.6-0.6,0.6c-0.5,0-1,0-1.9,0.2c-2.1,0.4-2.5,1.7-2.7,4.1c-0.2,2.4-0.1,4.5-0.1,16v8c0,8.1-1.1,17.1-7.2,22.3
			c-5.6,4.8-11.6,5.4-16.1,5.4c-2.5,0-10.6-0.2-16-5.3c-3.8-3.5-6.7-8.7-6.7-19.5V310.5z"/>
		<path d="M721.6,310.5c0-11.6,0-13.7-0.2-16c-0.2-2.5-0.6-3.9-3.2-4.3c-0.6-0.1-1.9-0.2-2.6-0.2c-0.3,0-0.6-0.2-0.6-0.4
			c0-0.4,0.4-0.6,1.2-0.6c3.5,0,8.5,0.2,8.9,0.2c1.8,0,5.4-0.2,9-0.2c12.9,0,16.2,7.4,16.2,11.4c0,5.9-3.9,9.5-7.8,13.1
			c5.9,1.8,13.6,7.1,13.6,15.5c0,8.3-6.2,16.6-19.4,16.6c-1.4,0-4.2-0.1-6.7-0.3c-2.5-0.1-4.6-0.2-5-0.2c-0.2,0-1.6,0.1-3.2,0.1
			c-1.6,0.1-3.4,0.2-4.6,0.2c-0.8,0-1.2-0.2-1.2-0.6c0-0.3,0.2-0.4,0.6-0.4c0.7,0,1.7-0.3,2.4-0.4c1.5-0.3,1.7-1.9,2-4.1
			c0.4-3.1,0.4-8.9,0.4-16.1V310.5z M728.3,312.1c0,0.5,0.2,0.7,0.5,0.8c0.4,0.1,1.8,0.4,4.7,0.4c4.3,0,6-0.2,7.5-1.9
			c1.7-1.8,3-4.4,3-8c0-5.7-3.2-12-10.9-12c-0.9,0-2.7,0.1-3.9,0.4c-0.7,0.2-1,0.4-1,0.8V312.1z M728.3,320.4c0,5.8,0,14.7,0.1,15.9
			c0.3,3.6,0.3,4.5,2.6,5.6c2.1,1,5.3,1.1,6.7,1.1c5.1,0,11.3-1.9,11.3-11.5c0-3.3-1.3-9.7-7.4-13.6c-2.6-1.7-5.1-1.6-6.9-1.9
			c-1-0.2-4.8-0.2-6-0.2c-0.3,0-0.4,0.2-0.4,0.5V320.4z"/>
	</g>
	<g>
		<path d="M62.6,203.9c0-20.5,0-24.1-0.3-28.3c-0.3-4.5-1.3-6.6-5.6-7.5c-1-0.3-3.3-0.4-4.5-0.4c-0.5,0-1-0.3-1-0.8
			c0-0.8,0.7-1,2.1-1c5.9,0,14.2,0.4,14.8,0.4c1.6,0,9.8-0.4,17.7-0.4c13,0,37-1.2,52.6,15c6.6,6.8,12.7,17.7,12.7,33.3
			c0,16.5-6.8,29.3-14.2,37c-5.6,5.9-17.4,15.1-39.7,15.1c-5.6,0-12.6-0.4-18.2-0.8c-5.8-0.4-10.2-0.8-10.9-0.8
			c-0.3,0-2.5,0-5.2,0.1c-2.6,0-5.6,0.3-7.6,0.3c-1.4,0-2.1-0.3-2.1-1c0-0.4,0.3-0.8,1-0.8c1.2,0,2.8-0.3,3.9-0.5
			c2.6-0.5,3.3-3.4,3.8-7.2c0.7-5.5,0.7-15.9,0.7-28.5V203.9z M73.6,218c0,13.9,0.1,26,0.3,28.5c0.1,3.3,0.4,8.5,1.4,10
			c1.7,2.5,6.8,5.2,22.3,5.2c12.2,0,23.5-4.5,31.2-12.2c6.8-6.7,10.5-19.3,10.5-31.3c0-16.7-7.2-27.4-12.6-33.1
			c-12.3-13-27.3-14.8-42.9-14.8c-2.6,0-7.5,0.4-8.5,0.9c-1.2,0.5-1.6,1.2-1.6,2.6c-0.1,4.5-0.1,17.8-0.1,27.9V218z"/>
		<path d="M181.1,232.6c0,10.8,0,19.5,0.5,24.1c0.4,3.3,0.8,5.4,4.2,5.9c1.7,0.3,4.2,0.5,5.2,0.5c0.7,0,0.9,0.5,0.9,0.9
			c0,0.5-0.5,0.9-1.8,0.9c-6.4,0-13.9-0.4-14.4-0.4c-0.7,0-7.9,0.4-11.4,0.4c-1.2,0-1.8-0.3-1.8-0.9c0-0.4,0.3-0.9,0.9-0.9
			c1.1,0,2.5-0.3,3.5-0.5c2.2-0.5,2.6-2.6,3-5.9c0.5-4.6,0.7-13.4,0.7-24.1v-19.7c0-17.3,0-20.5-0.3-24c-0.3-3.8-1.2-5.5-3.7-6
			c-1.3-0.3-2.8-0.4-3.5-0.4c-0.5,0-0.9-0.5-0.9-0.9c0-0.7,0.5-0.9,1.8-0.9c3.8,0,11,0.3,11.7,0.3c0.5,0,8-0.3,11.5-0.3
			c1.3,0,1.8,0.3,1.8,0.9c0,0.4-0.5,0.9-0.9,0.9c-0.8,0-1.6,0-2.9,0.3c-3.1,0.7-3.8,2.2-4.1,6.2c-0.1,3.5-0.1,6.7-0.1,24V232.6z"/>
		<path d="M208.5,212.9c0-17.3,0-20.5-0.3-24c-0.3-3.8-0.9-5.6-4.7-6.2c-0.9-0.1-2.9-0.3-3.9-0.3c-0.4,0-0.9-0.5-0.9-0.9
			c0-0.7,0.5-0.9,1.8-0.9c5.2,0,13,0.3,13.6,0.3c1.2,0,10.9-0.3,14.4-0.3c7.3,0,15.5,0.7,21.5,4.9c2.9,2.1,8,7.5,8,15.2
			c0,8.3-3.4,16.3-14.2,25.4c9.4,11.8,17.4,21.9,24.1,28.9c6.2,6.3,10,7.3,12.9,7.7c2.2,0.4,3.4,0.4,4.1,0.4c0.7,0,1,0.5,1,0.9
			c0,0.7-0.7,0.9-2.8,0.9h-7.2c-6.6,0-9.4-0.7-12.3-2.2c-5-2.6-9.2-8-15.7-16.4c-4.9-6-10-13.2-12.5-16.3c-0.5-0.5-0.8-0.7-1.6-0.7
			l-14.7-0.3c-0.5,0-0.8,0.3-0.8,0.9v2.6c0,10.8,0,19.4,0.5,24c0.4,3.3,1,5.4,4.6,5.9c1.6,0.3,4.1,0.5,5.1,0.5
			c0.8,0,0.9,0.5,0.9,0.9c0,0.5-0.5,0.9-1.8,0.9c-6.3,0-13.6-0.4-14.2-0.4c-0.1,0-7.9,0.4-11.4,0.4c-1.2,0-1.8-0.3-1.8-0.9
			c0-0.4,0.3-0.9,0.9-0.9c1,0,2.5-0.3,3.5-0.5c2.2-0.5,2.5-2.6,3-5.9c0.7-4.6,0.7-13.4,0.7-24.1V212.9z M218.5,222.4
			c0,0.7,0.3,1,0.8,1.4c1.7,0.9,7.6,1.7,12.7,1.7c2.8,0,5.9-0.1,8.7-2c3.9-2.6,7-8.5,7-17c0-13.9-7.6-21.9-19.9-21.9
			c-3.4,0-7.1,0.4-8.3,0.7c-0.5,0.3-0.9,0.7-0.9,1.3V222.4z"/>
		<path d="M291.4,212.9c0-17.3,0-20.5-0.3-24c-0.3-3.8-0.9-5.6-4.7-6.2c-0.9-0.1-2.9-0.3-3.9-0.3c-0.4,0-0.9-0.5-0.9-0.9
			c0-0.7,0.5-0.9,1.8-0.9c5.2,0,12.7,0.3,13.4,0.3c0.8,0,24.9,0.1,27.5,0c2.2-0.1,4.3-0.5,5.2-0.7c0.5-0.1,1-0.5,1.6-0.5
			c0.4,0,0.5,0.5,0.5,1c0,0.8-0.7,2.1-0.9,5.2c-0.1,1-0.4,6-0.7,7.3c-0.1,0.5-0.5,1.2-1,1.2c-0.7,0-0.9-0.5-0.9-1.4
			c0-0.8-0.1-2.6-0.7-3.9c-0.8-1.8-2-2.6-8.3-3.4c-2-0.3-15.3-0.4-16.7-0.4c-0.5,0-0.7,0.4-0.7,1.2v30.3c0,0.8,0,1.2,0.7,1.2
			c1.4,0,16.7,0,19.3-0.3c2.8-0.3,4.5-0.4,5.6-1.6c0.8-0.8,1.3-1.4,1.7-1.4c0.4,0,0.7,0.3,0.7,0.9c0,0.7-0.7,2.5-0.9,6.2
			c-0.3,2.2-0.5,6.4-0.5,7.2c0,0.9-0.3,2.1-1,2.1c-0.5,0-0.8-0.4-0.8-1c0-1.1,0-2.2-0.5-3.7c-0.4-1.6-1.4-2.9-5.9-3.4
			c-3.1-0.4-15.5-0.5-17.4-0.5c-0.7,0-0.8,0.4-0.8,0.8v9.3c0,3.8-0.1,16.8,0,19c0.3,7.5,2.4,8.9,13.8,8.9c3,0,8.5,0,11.5-1.2
			c3-1.3,4.6-3.3,5.2-7.7c0.3-1.3,0.5-1.7,1.2-1.7c0.7,0,0.8,0.9,0.8,1.7c0,0.8-0.9,8.4-1.6,10.8c-0.8,2.9-2,2.9-6.4,2.9
			c-8.7,0-15.3-0.3-20.1-0.4c-4.9-0.3-7.9-0.3-9.6-0.3c-0.3,0-2.5,0-5,0.1c-2.2,0.1-4.9,0.3-6.7,0.3c-1.2,0-1.8-0.3-1.8-0.9
			c0-0.4,0.3-0.9,0.9-0.9c1,0,2.5-0.4,3.5-0.5c2.2-0.4,2.5-2.6,3-5.9c0.7-4.6,0.7-13.4,0.7-24.1V212.9z"/>
		<path d="M354.1,254.5c-11.3-9.7-14-22.4-14-33.1c0-7.5,2.8-20.5,13-30.4c7-6.7,17.4-11.9,35.2-11.9c4.6,0,11.2,0.4,16.8,1.3
			c4.3,0.8,8,1.6,11.8,1.7c1.2,0,1.4,0.5,1.4,1.2c0,0.9-0.3,2.2-0.5,6.3c-0.1,3.7-0.1,9.8-0.3,11.4c-0.1,1.7-0.7,2.4-1.3,2.4
			c-0.8,0-0.9-0.8-0.9-2.4c0-4.3-1.8-8.8-4.9-11.2c-4.1-3.4-12.5-6.2-22.7-6.2c-14.8,0-21.9,3.9-26,7.7
			c-8.5,7.9-10.4,17.8-10.4,29.1c0,21.4,16.9,40.4,41.6,40.4c8.7,0,14.4-0.7,19-5.2c2.5-2.5,4.1-7.2,4.5-9.3
			c0.3-1.2,0.4-1.6,1.2-1.6c0.5,0,1.1,0.8,1.1,1.6c0,0.8-1.6,10.5-2.8,14.3c-0.7,2.1-0.9,2.5-2.9,3.3c-4.7,1.8-13.4,2.5-20.9,2.5
			C374.8,266.4,363.2,262.4,354.1,254.5z"/>
		<path d="M465.4,232.6c0,10.8,0,19.5,0.5,24.1c0.4,3.3,0.9,5.4,4.5,5.9c1.6,0.3,4.2,0.5,5.2,0.5c0.8,0,0.9,0.5,0.9,0.9
			c0,0.5-0.5,0.9-1.8,0.9c-6.3,0-13.6-0.4-14.3-0.4c-0.5,0-8.5,0.4-11.9,0.4c-1.3,0-1.8-0.3-1.8-0.9c0-0.4,0.3-0.8,0.9-0.8
			c1.1,0,2.4-0.3,3.4-0.5c2.4-0.5,3-2.8,3.4-6c0.5-4.6,0.5-13.4,0.5-24.1v-46.8l-16.7,0.3c-7.2,0.1-10,0.9-11.7,3.5
			c-1.3,2-1.4,2.8-1.8,3.5c-0.3,0.9-0.7,1-1.2,1c-0.3,0-0.8-0.3-0.8-0.9c0-1.2,2.4-11.1,2.5-12.1c0.3-0.7,0.8-2.1,1.2-2.1
			c0.8,0,2,0.9,5.1,1.3c3.3,0.4,7.7,0.5,9,0.5h43.6c3.8,0,6.4-0.3,8.3-0.5c1.7-0.3,2.8-0.5,3.3-0.5c0.5,0,0.5,0.7,0.5,1.3
			c0,3.4-0.4,11.4-0.4,12.7c0,0.9-0.5,1.4-1,1.4c-0.5,0-0.8-0.4-0.9-2l-0.1-1.2c-0.4-3.4-2.9-5.9-13.9-6.2l-14.4-0.3V232.6z"/>
		<path d="M544.6,179.1c26,0,45.6,15.9,45.6,41.8c0,24.9-18.5,45.5-46.3,45.5c-31.6,0-45.1-23.7-45.1-43.8
			C498.8,204.7,512.7,179.1,544.6,179.1z M547.2,261.8c10.4,0,31.2-5.5,31.2-37.8c0-26.8-16.3-40.8-34.5-40.8
			c-19.3,0-33.2,12.1-33.2,36.3C510.8,245.6,526.4,261.8,547.2,261.8z"/>
		<path d="M601.3,212.9c0-17.3,0-20.5-0.3-24c-0.3-3.8-0.9-5.6-4.7-6.2c-0.9-0.1-2.9-0.3-3.9-0.3c-0.4,0-0.9-0.5-0.9-0.9
			c0-0.7,0.5-0.9,1.8-0.9c5.2,0,13,0.3,13.6,0.3c1.2,0,10.9-0.3,14.4-0.3c7.3,0,15.5,0.7,21.5,4.9c2.9,2.1,8,7.5,8,15.2
			c0,8.3-3.4,16.3-14.2,25.4c9.4,11.8,17.4,21.9,24.1,28.9c6.2,6.3,10,7.3,12.9,7.7c2.2,0.4,3.4,0.4,4.1,0.4c0.7,0,1,0.5,1,0.9
			c0,0.7-0.7,0.9-2.8,0.9h-7.2c-6.6,0-9.4-0.7-12.3-2.2c-5-2.6-9.2-8-15.7-16.4c-4.9-6-10-13.2-12.5-16.3c-0.5-0.5-0.8-0.7-1.6-0.7
			l-14.7-0.3c-0.5,0-0.8,0.3-0.8,0.9v2.6c0,10.8,0,19.4,0.5,24c0.4,3.3,1,5.4,4.6,5.9c1.6,0.3,4.1,0.5,5.1,0.5
			c0.8,0,0.9,0.5,0.9,0.9c0,0.5-0.5,0.9-1.8,0.9c-6.3,0-13.6-0.4-14.2-0.4c-0.1,0-7.9,0.4-11.4,0.4c-1.2,0-1.8-0.3-1.8-0.9
			c0-0.4,0.3-0.9,0.9-0.9c1,0,2.5-0.3,3.5-0.5c2.2-0.5,2.5-2.6,3-5.9c0.7-4.6,0.7-13.4,0.7-24.1V212.9z M611.3,222.4
			c0,0.7,0.3,1,0.8,1.4c1.7,0.9,7.6,1.7,12.7,1.7c2.8,0,5.9-0.1,8.7-2c3.9-2.6,7-8.5,7-17c0-13.9-7.6-21.9-19.9-21.9
			c-3.4,0-7.1,0.4-8.3,0.7c-0.5,0.3-0.9,0.7-0.9,1.3V222.4z"/>
		<path d="M681.2,263.4c-1.6-0.8-1.7-1.2-1.7-4.2c0-5.5,0.5-10,0.7-11.8c0-1.2,0.3-1.8,0.9-1.8c0.7,0,1.1,0.4,1.1,1.3
			c0,0.9,0,2.5,0.4,4.1c1.8,8.1,10.5,11,18.2,11c11.4,0,17.3-6.4,17.3-14.8c0-8-4.3-11.8-14.6-19.4l-5.2-3.9
			c-12.5-9.3-16.5-16.1-16.5-23.9c0-13.1,10.4-21,25.6-21c4.6,0,9.2,0.7,11.9,1.3c2.2,0.5,3.1,0.5,4.1,0.5c0.9,0,1.2,0.1,1.2,0.8
			c0,0.5-0.5,4.2-0.5,11.8c0,1.7-0.1,2.5-0.9,2.5c-0.8,0-0.9-0.5-1-1.4c-0.1-1.3-1-4.3-1.7-5.5c-0.8-1.3-4.6-5.5-15-5.5
			c-8.4,0-15.3,4.2-15.3,12.1c0,7.1,3.5,11.1,15,18.9l3.3,2.2c14,9.6,18.9,17.3,18.9,26.9c0,6.6-2.5,13.6-10.8,19
			c-4.9,3.1-12.1,3.9-18.4,3.9C692.6,266.4,685.9,265.6,681.2,263.4z"/>
	</g>
	<g>
		<path d="M70.6,58.4c0,3.4,0.9,3.8,4.7,3.9v1.2H60.1v-1.2c3.2-0.1,4.1-0.5,4.1-3.9V36.4c0-3.4-0.9-3.8-4-3.9v-1.2h27l0.2,7.1H86
			c-1.1-3.6-2.4-4.8-8.7-4.8h-4.9c-1.5,0-1.8,0.3-1.8,1.7v10.2h5.5c5,0,6.1-0.9,6.7-4.3h1.2v11.4h-1.2c-0.7-3.8-2.6-4.8-6.7-4.8
			h-5.5V58.4z"/>
		<path d="M102.5,58.4c0,3.4,0.9,3.8,4.8,3.9v1.2h-16v-1.2c3.9-0.1,4.8-0.5,4.8-3.9V36.4c0-3.4-0.9-3.8-4.8-3.9v-1.2h16v1.2
			c-3.9,0.1-4.8,0.5-4.8,3.9V58.4z"/>
		<path d="M140.5,37.3c0-3.1-0.9-4.4-4.4-4.8v-1.2h11.4v1.2c-3.5,0.4-4.4,1.7-4.4,4.8v27h-1.6l-22-25.5v18.7c0,3.1,0.8,4.4,4.4,4.8
			v1.2h-11.4v-1.2c3.5-0.4,4.4-1.7,4.4-4.8V35.8c-1.1-1.9-2.4-2.8-4.4-3.3v-1.2h8.8l19.2,22.2V37.3z"/>
		<path d="M157.8,52l4.8-12.8l4.8,12.8H157.8z M180.9,63.5v-1.2c-2.4,0-3-1-4.3-4l-11.4-27.8h-1.6l-11.8,28.8c-0.8,2-1.9,2.6-3.9,3
			v1.2h10.3v-1.2c-2.2,0-3.3-0.5-3.3-2c0-1.3,1.5-4.9,1.9-5.9h11.7c0.4,1,1.9,4.6,1.9,5.9c0,1.6-1.2,2-3.4,2v1.2H180.9z"/>
		<path d="M212.2,37.3c0-3.1-0.9-4.4-4.4-4.8v-1.2h11.4v1.2c-3.5,0.4-4.4,1.7-4.4,4.8v27h-1.6l-22.1-25.5v18.7
			c0,3.1,0.9,4.4,4.4,4.8v1.2h-11.4v-1.2c3.5-0.4,4.4-1.7,4.4-4.8V35.8c-1.1-1.9-2.4-2.8-4.4-3.3v-1.2h8.8l19.2,22.2V37.3z"/>
		<path d="M253,56c-3.4,5.8-7.8,8.4-14.5,8.4c-10.5,0-16.7-6.9-16.7-17.2c0-7.4,5.8-16.6,17.1-16.6c3.4,0,8.2,1.9,8.9,1.9
			c0.9,0,1.2-0.5,2-1.9h1.6l0.7,10.8h-1.4c-1.9-5-5.3-8.6-10.9-8.6c-7.6,0-10.9,8.2-10.9,14.4c0,8.7,3.8,14.5,11.8,14.5
			c6.3,0,9.7-4.7,11.2-6.7L253,56z"/>
		<path d="M268.7,58.4c0,3.4,0.9,3.8,4.8,3.9v1.2h-16v-1.2c3.8-0.1,4.8-0.5,4.8-3.9V36.4c0-3.4-0.9-3.8-4.8-3.9v-1.2h16v1.2
			c-3.8,0.1-4.8,0.5-4.8,3.9V58.4z"/>
		<path d="M286.7,52l4.9-12.8l4.8,12.8H286.7z M309.8,63.5v-1.2c-2.4,0-3-1-4.3-4l-11.4-27.8h-1.6l-11.8,28.8c-0.8,2-1.9,2.6-3.9,3
			v1.2h10.3v-1.2c-2.2,0-3.3-0.5-3.3-2c0-1.3,1.5-4.9,1.8-5.9h11.7c0.4,1,2,4.6,2,5.9c0,1.6-1.2,2-3.4,2v1.2H309.8z"/>
		<path d="M312.6,63.5v-1.2c3.1-0.1,4-0.5,4-3.9V36.4c0-3.4-0.9-3.8-4-3.9v-1.2h14.9v1.2c-3.6,0.1-4.5,0.5-4.5,3.9v22.7
			c0,2,0.6,2.6,4.2,2.6c5.8,0,9.2-1,12-6.8h1.2l-2.2,8.6H312.6z"/>
		<path d="M359.6,62.3c3.7-0.1,4.6-0.5,4.6-3.9V33.6h-4c-3.8,0-5.2,1.5-6.3,5.9h-1.4l0.8-8.3h28.3l0.8,8.3h-1.4
			c-1-4.4-2.5-5.9-6.3-5.9h-4v24.8c0,3.4,0.9,3.8,4.6,3.9v1.2h-15.6V62.3z"/>
		<path d="M396.8,58.4c0,3.4,0.9,3.8,4.8,3.9v1.2h-16v-1.2c3.9-0.1,4.8-0.5,4.8-3.9V36.4c0-3.4-0.9-3.8-4.8-3.9v-1.2h16v1.2
			c-3.8,0.1-4.8,0.5-4.8,3.9V58.4z"/>
		<path d="M435.5,31.3h11.1v1.2c-3.1,0.1-4,0.5-4,3.9v22.1c0,3.4,0.9,3.8,4,3.9v1.2h-14.5v-1.2c3.2-0.1,4.1-0.5,4.1-3.9V35.7h-0.1
			l-10.8,28.2h-1.5l-10.5-28.2h-0.1v21.8c0,3.1,0.9,4.4,4.4,4.8v1.2h-11.4v-1.2c3.5-0.4,4.4-1.7,4.4-4.8v-22c0-2.2-0.9-3.1-4.4-3.1
			v-1.2h11.7l8.6,22.4L435.5,31.3z"/>
		<path d="M451.2,63.5v-1.2c3.1-0.1,4-0.5,4-3.9V36.4c0-3.4-0.9-3.8-4-3.9v-1.2h27l0.2,7.1h-1.3c-1.1-3.6-2.4-4.8-8.7-4.8h-4.9
			c-1.5,0-1.8,0.3-1.8,1.7v10.2h5.5c5,0,6.1-0.9,6.8-4.3h1.2v11.4h-1.2c-0.7-3.8-2.6-4.8-6.8-4.8h-5.5v11.2c0,2,0.6,2.6,6.3,2.6
			c5.8,0,9.2-1,12-6.8h1.2l-2.2,8.6H451.2z"/>
		<path d="M485.4,53.4h1.2c1.4,4.3,5.5,8.7,10.2,8.7c4.1,0,5.6-2.9,5.6-5.4c0-7.4-16.7-8.8-16.7-18c0-4.5,4.3-8.3,9.3-8.3
			c4.8,0,6.6,1.7,8.7,1.7c0.9,0,1.5-0.7,1.7-1.7h1.2v10.3h-1.2c-1.3-4.7-4.7-8.1-9-8.1c-3.6,0-4.9,2.3-4.9,4.5
			c0,6.6,16.7,6.8,16.7,18.1c0,5.1-4.2,9-10,9c-5.7,0-7.2-2-9.4-2c-0.8,0-1.4,0.6-1.6,1.6h-1.7V53.4z"/>
	</g>
	<g>
		<path d="M744.5,177.8c-1.1-1.2-1.2-1.6-1.2-2.3c0-0.4,0.7-0.8,1.2-0.8c2.1,0,7.2,1.6,9.3,2.4c1.6,0.8,2.3,1.5,2.3,3.5
			c0,9.4-6.8,20.6-11.4,26.2c-0.5,0.8-1.1,1.1-1.7,1.1c-0.3,0-0.7-0.3-0.7-0.7c0-0.4,0.1-0.8,0.5-1.7c2-4.3,4.4-11.4,4.4-19
			C747.1,182.3,745.4,178.9,744.5,177.8z"/>
	</g>
</g>
</svg>
