<svg id="Layer_1" data-name="Layer 1" xmlns="http://www.w3.org/2000/svg" viewBox="0 0 1039.2 719.4"><defs><style>.cls-1 { fill: #fddcc1; }</style></defs><title>125-lines-pink</title><path class="cls-1" d="M.2 187.1v13.2h58.3v277.6h16.1V185.8L.2 187.1zm124 290.8v-14c50.4-49.6 141.3-139.6 141.3-201.2 0-40.5-15.3-66.1-59.9-66.1-30.2 0-50 11.6-63.6 21.5l-6.6-11.6c9.9-7.4 32.6-24 71.1-24 61.5 0 75.2 41.7 75.2 78.5 0 60.3-58.2 126.8-137.5 202.8H302v14H124.2zm265.6 1.7c-28.5 0-53.7-4.1-64-6.6l3.7-16.1c7 2.1 33 6.6 60.3 6.6 40.5 0 72.3-23.6 72.3-65.7 0-50.8-34.3-72.3-72.7-72.3-20.7 0-38.8 1.2-52.9 3.3V185.5H467v15.3H352.2v110.6c13.2-1.2 25.6-1.7 40.5-1.7 48.3 0 85.5 28.9 85.5 85.1s-37.6 84.7-88.4 84.7M.5 9.3V17h49.8v132h7.9V17h49.6V9.3H.5zM194.2 149V80.2c0-20.3-1.6-34-25.5-34-12.5 0-30 10.3-37.3 15.8v87h-7.7V0h7.7v54.7c7.3-5.7 22.1-15.6 38.5-15.6 30.8 0 31.8 20.6 31.8 39.3V149h-7.5zm71.9-103.9c-18.2 0-32.4 12.2-34.6 42.7h63c-.2-22.3-6.5-42.7-28.5-42.7m-34.8 49.4c0 36.8 12.6 49 41.3 49 10.7 0 23.7-3.4 27.5-4.9l2 6.9c-.8.4-13.4 5.3-32 5.3-29.4 0-46.6-13.2-46.6-53.8 0-30.2 9.9-58.5 43.9-58.5 26.7 0 35.4 22.9 35.4 53.1v2.8h-71.4zM72 715.2h.1c9-2.1 11.5-2.5 11.5-10.9V649c0-8.2-2.6-9-11.5-10.7h-.2v-2.4h37v2.4h-.2c-8.3 1.8-11.5 2.5-11.5 10.7v55.4c0 7.8 2.5 9.3 11.4 10.8h.3v2.4h-37v-2.4m363.4-15.3v.4c-4.4 11.5-16.2 19.1-31.9 19.1-24.3 0-40-17.3-40-42.2 0-22.8 15.3-43.2 41.2-43.2a53.7 53.7 0 0 1 13.1 1.6c3.2.7 5.1 1.8 7.3 1.8a6.8 6.8 0 0 0 3.8-1.7h2.5l1.2 24.8h-4.2c-3.3-13-9.9-21-23-21-16.4 0-27.5 15-27.5 37s13 35.8 28.4 35.8c12.2 0 20.8-6.4 25-16.4v-.3l4 4.1m547.8-7.1h4.1v.4c2.5 11.9 11.5 20 22.6 20s16.6-5.1 16.6-12.9c0-9.6-7-13-13.9-16.8-5-2.7-8.7-4.6-14-7.2-10.3-5.3-14.9-13.4-14.9-21.3 0-13.2 12.1-21.7 26.6-21.7a45.1 45.1 0 0 1 15.2 2.7c2.9 1.1 6 .1 6.4-2.4h2.6l2.6 24.3h-4.3c-.1-.1 0-.2-.1-.4-3.8-12.7-11.6-18.6-22.8-18.6-8.5 0-13.9 5.2-13.9 12s3.1 10 11.5 14.7c6.9 3.9 9.2 4.7 14.4 7.4 10.5 5.2 17.4 13.4 17.4 22.8 0 13.7-11.8 23.5-29.1 23.5a38.1 38.1 0 0 1-14.9-2.9c-2.6-1.1-4.1-1.9-6.6-1.9a5.4 5.4 0 0 0-4.8 2.7H981l1.8-24.3M179.6 649c0-8.2-2.5-8.7-11.5-10.8h-.2v-2.4h30v2.4h-.2c-8.9 2.1-11.4 2.6-11.4 10.8v68.6h-4l-49.9-64.1v50.9c0 8.6 3.7 8.8 12.2 10.8h.2v2.4H114v-2.4h.2c8.9-2.1 11.4-2.5 11.4-10.8v-57.9c-3.3-5-6.4-7.2-11.4-8.2h-.2v-2.4h22.1l43.4 56.1v-42.9M25.3 704.4c0 8.3 3.6 9.2 12.2 10.8h.2v2.4H0v-2.4h.2c8.9-2.1 11.4-2.5 11.4-10.8v-55.3c0-8.2-2.5-9.1-11.4-10.8H0v-2.5h66.8l1.3 19.8h-4v-.2c-1.8-10.7-5.6-13.8-16.7-13.8H31.5c-4.5 0-6.2 1.3-6.2 5.8v24.5h16.6c10.3 0 12.9-2.5 12.9-11.2h4.3v30.8h-4.3c0-9.8-2.5-12.9-13-12.9H25.3v25.8m690.3-.7c0 8.1 2.7 9.2 11.4 10.8h.3v2.5h-37v-2.5h.2c9-2.1 11.5-2.4 11.5-10.8v-63.1h-6.9c-14.1 0-17.2 3.9-18.7 17.2a1.3 1.3 0 0 1-.1.3H672l1.5-22.9h71.2l.8 22.9h-4.3a2.6 2.6 0 0 1 0-.4c-1.5-14.3-4.9-17.1-19.1-17.1h-6.6v63.1m76.4 13.3v-2.5c9.1-2.1 11.2-2.6 11.2-10.9l1.8-55.5c0-8.2-2.4-8.8-11.4-10.5h-.2v-2.4h26.3l24.3 58.5 23.7-58.5h26.7v2.5c-8.5 1.8-12.1 2.3-12.1 10.8l1.8 55.4c0 8 2.6 8.7 11.7 10.8v2.3h-36.6v-2.4c9.1-2.1 12.1-2.8 12.1-10.8l-1.8-55.8-27.9 69h-2.8l-27.2-66.5-1.8 53.3c0 8.5 2.3 8.7 11.4 10.8v2.4h-29.3m109.3-.1v-2.4h.4c9.2-2.1 11.3-3.1 11.3-11.3v-55c0-8.3-2.6-9-11.6-10.7v-2.4h69.6l1.1 18.6h-4.3c-1.6-10.9-5.7-12.9-16.4-12.9h-24.7v29.6h16c10.6 0 14.7-1.2 15.2-10.9v-.3h4.3v30.9h-4.3a1.4 1.4 0 0 1 0-.3c-.7-10.2-3.6-12.5-15.2-12.5h-16v26.5c0 5.5.7 7.1 5.5 7.1h16.2c16.3 0 19.3-2.9 23.1-18.3h4.3l-2.3 24.3h-72.1M291.5 703c0 8.8-1.7 10.7-8.1 11.3h-2.3c-8.9-.5-10.3-2.3-16.4-16.1-10.2-23.5-26.6-64-26.6-64h-4.6s-25.8 59.1-28.6 65.1c-5.5 12.1-7.2 14.2-14 15.7h-.2v2.4h27.2V715h-.4c-8.4-1.7-11.4-1.4-7.3-11.4l5.3-12.6h31.8l4.5 11.4c3.5 8.7 2.9 10.6-6.4 12.6h-.1v2.4h65.3V715h-.2c-8.6-2-12.2-2.1-12.2-10.8v-50.9l49.9 64.2h4v-68.6c0-8.2 2.6-8.7 11.4-10.8h.2v-2.4h-30v2.4h.2c9 2.1 11.5 2.6 11.5 10.8v42.9L302 635.7h-22.1v2.4h.2c5 1 8.1 3.2 11.4 8.2v56.5m-73-18.2l13.3-30.9 12.9 30.9h-26.2zm348 29.8c-6.5-.1-9.5-1.6-15.3-16l-26.5-63.9h-4.6l-28.6 65.1c-5.3 11.6-8.4 14.1-14.8 14.9h-1.9c-7.4-.3-9.2-1.7-9.2-10.1v-55.3c0-8.3 3.2-9 11.4-10.7h.2V636h-37v2.4h.2c8.9 1.7 11.5 2.6 11.5 10.7v55.3c0 8.3-2.4 8.7-11.4 10.8h-.3v2.5h64.1v-2.4h-.3c-8.4-1.7-11.4-1.3-7.3-11.3l5.3-12.6h31.8l4.5 11.3c3.5 8.7 2.9 10.5-6.4 12.5h-.3v2.4h100.1l3.7-23.7h-4.1c-3.2 13.1-7 17.4-19 17.4h-12.8c-7.2 0-7.9-1.6-7.9-8.1v-54.1c0-8.3 2.8-9.1 11.5-10.8h.3v-2.5h-37.3v2.4h.3c8.8 1.7 11.3 2.4 11.3 10.7v51.9c0 10.4-1.9 12.8-9.2 13.5h-2.2m-61.6-29.5l13.3-30.9 13 30.9h-26.3zm245 29.7h.1c9-2.1 11.5-2.5 11.5-10.8v-55.3c0-8.2-2.6-9-11.5-10.8h-.2v-2.4h37v2.4h-.2c-8.4 1.8-11.4 2.4-11.4 10.8v55.3c0 7.8 2.4 9.3 11.4 10.8h.3v2.4h-37v-2.4m-641.1 1.3zm201.9 0zm-119.3 0zm340.9 0z"/></svg>